<?xml version="1.0" standalone="no"?>
<!DOCTYPE svg PUBLIC "-//W3C//DTD SVG 20010904//EN"
 "http://www.w3.org/TR/2001/REC-SVG-20010904/DTD/svg10.dtd">
<svg version="1.0" xmlns="http://www.w3.org/2000/svg"
 width="700.000000pt" height="700.000000pt" viewBox="0 0 700.000000 700.000000"
 preserveAspectRatio="xMidYMid meet">
<metadata>
Created by potrace 1.14, written by Peter Selinger 2001-2017
</metadata>
<g transform="translate(0.000000,700.000000) scale(0.100000,-0.100000)"
fill="#000000" stroke="none">
<path d="M3759 6606 c-2 -2 -47 -7 -99 -11 -52 -4 -97 -8 -100 -10 -3 -2 -29
-6 -59 -10 -30 -4 -63 -9 -75 -11 -12 -2 -32 -6 -46 -9 -598 -115 -1098 -411
-1467 -870 -63 -79 -166 -228 -217 -315 -46 -79 -152 -303 -180 -380 -15 -41
-34 -91 -42 -110 -13 -32 -60 -203 -69 -252 -2 -11 -6 -27 -9 -36 -3 -9 -8
-37 -11 -62 -4 -24 -8 -47 -10 -50 -2 -3 -6 -34 -10 -70 -3 -35 -9 -68 -11
-72 -9 -15 -11 -362 -3 -448 24 -242 68 -419 157 -630 50 -121 164 -322 221
-392 6 -7 34 -42 63 -78 70 -87 212 -228 269 -267 70 -48 138 -67 217 -60 235
22 400 271 303 457 -13 24 -70 91 -128 148 -237 236 -369 485 -422 801 -17
104 -22 363 -7 451 3 19 8 53 11 75 12 73 66 273 96 351 37 97 115 253 164
330 43 67 137 196 163 222 9 10 31 34 48 53 47 51 164 160 209 194 22 16 42
32 45 35 18 18 161 106 231 140 170 86 415 163 584 185 103 13 125 15 205 21
152 11 434 6 530 -11 14 -2 45 -6 70 -9 43 -4 146 -19 220 -32 164 -27 427
-98 670 -181 198 -67 259 -74 357 -44 200 61 327 281 255 443 -35 79 -83 116
-232 176 -359 145 -740 251 -1065 296 -60 8 -127 18 -147 21 -20 3 -61 8 -90
11 -69 6 -584 15 -589 10z"/>
<path d="M932 5820 c-76 -21 -134 -61 -182 -123 -89 -117 -260 -678 -305
-1002 -3 -22 -8 -50 -11 -63 -2 -12 -7 -44 -9 -70 -3 -26 -8 -58 -10 -72 -20
-108 -28 -666 -11 -795 11 -96 14 -117 21 -170 38 -294 149 -643 289 -905 323
-611 931 -1065 1651 -1237 34 -8 172 -33 248 -44 106 -17 435 -19 547 -4 153
20 174 24 292 55 248 63 464 167 678 323 104 77 308 275 357 348 124 181 55
433 -145 531 -124 61 -231 39 -332 -68 -195 -208 -325 -310 -505 -394 -142
-66 -289 -107 -450 -126 -77 -9 -274 -9 -345 -1 -30 4 -75 10 -100 13 -82 11
-272 64 -374 105 -464 186 -820 528 -1008 969 -29 66 -68 173 -73 200 -2 8
-10 40 -19 71 -21 70 -27 103 -61 307 -23 135 -23 524 0 697 2 17 7 55 10 85
29 259 113 586 237 919 41 111 49 144 47 190 -4 73 -25 126 -70 172 -89 91
-234 126 -367 89z"/>
<path d="M3929 5676 c-2 -2 -35 -6 -74 -10 -116 -11 -138 -15 -273 -47 -147
-35 -319 -97 -431 -156 -92 -49 -126 -68 -131 -73 -3 -3 -22 -16 -44 -28 -122
-71 -392 -317 -463 -423 -98 -143 -79 -330 46 -459 99 -101 221 -132 331 -83
25 11 69 46 100 79 74 78 158 162 202 201 64 56 199 143 293 188 272 129 555
166 907 119 151 -21 391 -103 556 -190 370 -195 653 -493 813 -855 59 -135
131 -376 145 -488 2 -20 9 -61 14 -91 27 -157 30 -539 6 -720 -2 -14 -7 -54
-11 -90 -4 -36 -8 -67 -10 -70 -2 -3 -6 -30 -10 -60 -4 -30 -8 -57 -10 -60 -2
-3 -6 -25 -10 -48 -20 -135 -108 -437 -215 -737 -40 -109 -39 -187 3 -258 57
-96 191 -159 323 -152 161 10 272 101 334 275 7 19 19 49 26 65 58 136 168
549 204 770 12 72 23 140 25 153 2 13 7 51 10 85 3 34 10 100 15 147 8 86 6
581 -4 655 -3 22 -8 60 -11 85 -3 25 -7 56 -10 70 -2 14 -7 42 -10 63 -3 21
-12 73 -21 115 -9 42 -17 85 -19 94 -8 38 -49 178 -77 263 -243 727 -819 1291
-1576 1544 -68 22 -134 43 -145 46 -12 2 -60 13 -107 24 -159 37 -303 53 -496
57 -105 2 -193 2 -195 0z"/>
<path d="M4653 4525 c-147 -45 -263 -188 -263 -324 0 -93 24 -137 136 -248
203 -203 305 -357 384 -586 80 -231 99 -585 44 -817 -3 -14 -8 -38 -11 -55 -9
-62 -86 -274 -137 -380 -120 -249 -247 -418 -468 -617 -79 -71 -398 -273 -398
-251 0 3 -6 1 -12 -4 -50 -39 -357 -128 -513 -149 -22 -3 -51 -7 -65 -10 -123
-21 -537 -21 -660 1 -14 2 -50 6 -80 9 -30 3 -82 11 -115 16 -33 6 -73 13 -90
16 -181 29 -544 129 -735 203 -149 58 -255 61 -355 12 -209 -104 -285 -357
-151 -504 21 -23 144 -97 161 -97 3 0 22 -7 43 -16 47 -21 425 -152 455 -158
12 -3 65 -17 117 -31 52 -14 104 -27 115 -30 172 -36 319 -65 355 -69 25 -3
77 -10 115 -15 238 -33 744 -37 901 -7 10 2 42 7 69 10 28 4 57 9 65 11 8 2
31 6 50 9 19 3 46 8 60 11 14 3 36 8 50 11 303 62 651 220 915 414 117 86 149
114 270 235 324 323 561 742 675 1194 53 212 74 382 74 601 0 170 -8 258 -40
445 -11 63 -67 254 -94 320 -83 203 -195 395 -313 538 -72 88 -214 227 -267
264 -88 60 -193 78 -287 48z"/>
</g>
</svg>
