<?xml version="1.0" encoding="UTF-8"?>
<!DOCTYPE svg PUBLIC "-//W3C//DTD SVG 1.1//EN" "http://www.w3.org/Graphics/SVG/1.1/DTD/svg11.dtd">
<svg xmlns="http://www.w3.org/2000/svg" version="1.1" width="225px" height="225px" style="shape-rendering:geometricPrecision; text-rendering:geometricPrecision; image-rendering:optimizeQuality; fill-rule:evenodd; clip-rule:evenodd" xmlns:xlink="http://www.w3.org/1999/xlink">
<g><path style="opacity:0.004" fill="#fefffe" d="M 209.5,2.5 C 210.833,3.16667 210.833,3.16667 209.5,2.5 Z"/></g>
<g><path style="opacity:0.004" fill="#fefffe" d="M 53.5,3.5 C 54.8333,4.16667 54.8333,4.16667 53.5,3.5 Z"/></g>
<g><path style="opacity:0.004" fill="#fefffe" d="M 101.5,5.5 C 102.833,6.16667 102.833,6.16667 101.5,5.5 Z"/></g>
<g><path style="opacity:0.004" fill="#fefffe" d="M 47.5,11.5 C 48.8333,12.1667 48.8333,12.1667 47.5,11.5 Z"/></g>
<g><path style="opacity:0.004" fill="#fefffe" d="M 17.5,12.5 C 18.8333,13.1667 18.8333,13.1667 17.5,12.5 Z"/></g>
<g><path style="opacity:0.004" fill="#fefffe" d="M 179.5,15.5 C 180.833,16.1667 180.833,16.1667 179.5,15.5 Z"/></g>
<g><path style="opacity:0.004" fill="#fefffe" d="M 20.5,19.5 C 21.8333,20.1667 21.8333,20.1667 20.5,19.5 Z"/></g>
<g><path style="opacity:0.988" fill="#040000" d="M 166.5,22.5 C 178.553,22.1091 190.553,22.6091 202.5,24C 209.097,26.2634 213.264,30.7634 215,37.5C 215.167,55.5 215.333,73.5 215.5,91.5C 215.648,110.563 215.148,129.563 214,148.5C 209.001,157.752 201.167,161.919 190.5,161C 188,164.833 184.833,168 181,170.5C 180.667,176.167 180.333,181.833 180,187.5C 177.833,193.667 173.667,197.833 167.5,200C 155.224,201.584 142.891,201.917 130.5,201C 122.718,199.89 117.218,195.723 114,188.5C 113.072,182.184 112.239,175.851 111.5,169.5C 107.833,167.833 105.167,165.167 103.5,161.5C 77.173,160.667 50.8397,160.167 24.5,160C 16.4437,158.278 11.277,153.444 9,145.5C 8.33333,121.167 8.33333,96.8333 9,72.5C 11.3858,64.1137 16.8858,59.2804 25.5,58C 34.0783,57.818 42.5783,57.318 51,56.5C 83.0933,57.4958 115.26,57.8291 147.5,57.5C 147.334,51.1579 147.5,44.8246 148,38.5C 151.019,29.3018 157.185,23.9684 166.5,22.5 Z"/></g>
<g><path style="opacity:0.004" fill="#fefffe" d="M 95.5,23.5 C 96.8333,24.1667 96.8333,24.1667 95.5,23.5 Z"/></g>
<g><path style="opacity:0.004" fill="#fefffe" d="M 134.5,32.5 C 135.833,33.1667 135.833,33.1667 134.5,32.5 Z"/></g>
<g><path style="opacity:0.004" fill="#fefffe" d="M 56.5,37.5 C 57.8333,38.1667 57.8333,38.1667 56.5,37.5 Z"/></g>
<g><path style="opacity:0.004" fill="#fefffe" d="M -0.5,38.5 C 0.833333,39.1667 0.833333,39.1667 -0.5,38.5 Z"/></g>
<g><path style="opacity:0.004" fill="#fefffe" d="M 47.5,38.5 C 48.8333,39.1667 48.8333,39.1667 47.5,38.5 Z"/></g>
<g><path style="opacity:0.004" fill="#fefffe" d="M 41.5,39.5 C 42.8333,40.1667 42.8333,40.1667 41.5,39.5 Z"/></g>
<g><path style="opacity:0.004" fill="#fefffe" d="M 221.5,40.5 C 222.833,41.1667 222.833,41.1667 221.5,40.5 Z"/></g>
<g><path style="opacity:1" fill="#701e1d" d="M 172.5,30.5 C 178.5,30.5 184.5,30.5 190.5,30.5C 190.5,34.5 190.5,38.5 190.5,42.5C 184.5,42.5 178.5,42.5 172.5,42.5C 172.5,38.5 172.5,34.5 172.5,30.5 Z"/></g>
<g><path style="opacity:1" fill="#911214" d="M 173.5,35.5 C 178.74,36.4491 184.073,36.7825 189.5,36.5C 189.5,38.1667 189.5,39.8333 189.5,41.5C 184.167,41.5 178.833,41.5 173.5,41.5C 173.5,39.5 173.5,37.5 173.5,35.5 Z"/></g>
<g><path style="opacity:1" fill="#c81e1d" d="M 189.5,36.5 C 184.073,36.7825 178.74,36.4491 173.5,35.5C 173.5,34.1667 173.5,32.8333 173.5,31.5C 178.833,31.5 184.167,31.5 189.5,31.5C 189.5,33.1667 189.5,34.8333 189.5,36.5 Z"/></g>
<g><path style="opacity:0.004" fill="#fefffe" d="M 62.5,48.5 C 63.8333,49.1667 63.8333,49.1667 62.5,48.5 Z"/></g>
<g><path style="opacity:0.004" fill="#fefffe" d="M 2.5,52.5 C 3.83333,53.1667 3.83333,53.1667 2.5,52.5 Z"/></g>
<g><path style="opacity:0.004" fill="#fefffe" d="M 218.5,61.5 C 219.833,62.1667 219.833,62.1667 218.5,61.5 Z"/></g>
<g><path style="opacity:1" fill="#230100" d="M 155.5,65.5 C 138.167,65.5 120.833,65.5 103.5,65.5C 103.5,69.1667 103.5,72.8333 103.5,76.5C 103.5,76.8333 103.5,77.1667 103.5,77.5C 102.515,73.3656 102.182,69.0323 102.5,64.5C 120.341,64.1699 138.008,64.5033 155.5,65.5 Z"/></g>
<g><path style="opacity:1" fill="#cf1919" d="M 34.5,71.5 C 34.5,71.1667 34.5,70.8333 34.5,70.5C 34.5,69.1667 34.5,67.8333 34.5,66.5C 51.1667,66.5 67.8333,66.5 84.5,66.5C 84.5,68.1667 84.5,69.8333 84.5,71.5C 67.8333,71.5 51.1667,71.5 34.5,71.5 Z"/></g>
<g><path style="opacity:1" fill="#741317" d="M 160.5,42.5 C 162.833,42.5 165.167,42.5 167.5,42.5C 167.5,52.1667 167.5,61.8333 167.5,71.5C 165.167,71.5 162.833,71.5 160.5,71.5C 160.5,61.8333 160.5,52.1667 160.5,42.5 Z"/></g>
<g><path style="opacity:1" fill="#cc1f1e" d="M 162.5,43.5 C 163.833,43.5 165.167,43.5 166.5,43.5C 166.5,50.8333 166.5,58.1667 166.5,65.5C 164.833,65.5 163.167,65.5 161.5,65.5C 161.203,58.0796 161.536,50.7463 162.5,43.5 Z"/></g>
<g><path style="opacity:1" fill="#691012" d="M 196.5,42.5 C 196.5,51.8333 196.5,61.1667 196.5,70.5C 198.167,70.5 199.833,70.5 201.5,70.5C 201.5,61.1667 201.5,51.8333 201.5,42.5C 202.494,51.9856 202.827,61.6522 202.5,71.5C 200.167,71.5 197.833,71.5 195.5,71.5C 195.173,61.6522 195.506,51.9856 196.5,42.5 Z"/></g>
<g><path style="opacity:1" fill="#b32023" d="M 196.5,42.5 C 198.167,42.5 199.833,42.5 201.5,42.5C 201.5,51.8333 201.5,61.1667 201.5,70.5C 199.833,70.5 198.167,70.5 196.5,70.5C 196.5,61.1667 196.5,51.8333 196.5,42.5 Z"/></g>
<g><path style="opacity:1" fill="#d11b18" d="M 197.5,44.5 C 198.5,44.5 199.5,44.5 200.5,44.5C 200.83,51.5316 200.497,58.5316 199.5,65.5C 198.914,65.2907 198.414,64.9574 198,64.5C 197.5,57.8417 197.334,51.175 197.5,44.5 Z"/></g>
<g><path style="opacity:1" fill="#961615" d="M 85.5,65.5 C 85.5,69.1667 85.5,72.8333 85.5,76.5C 68.5,76.5 51.5,76.5 34.5,76.5C 34.5,74.8333 34.5,73.1667 34.5,71.5C 51.1667,71.5 67.8333,71.5 84.5,71.5C 84.5,69.8333 84.5,68.1667 84.5,66.5C 67.8333,66.5 51.1667,66.5 34.5,66.5C 34.5,67.8333 34.5,69.1667 34.5,70.5C 34.1667,70.5 33.8333,70.5 33.5,70.5C 33.5,68.8333 33.5,67.1667 33.5,65.5C 50.8333,65.5 68.1667,65.5 85.5,65.5 Z"/></g>
<g><path style="opacity:1" fill="#961615" d="M 155.5,65.5 C 155.5,67.5 155.5,69.5 155.5,71.5C 155.167,71.5 154.833,71.5 154.5,71.5C 154.5,73.1667 154.5,74.8333 154.5,76.5C 137.5,76.5 120.5,76.5 103.5,76.5C 103.5,72.8333 103.5,69.1667 103.5,65.5C 120.833,65.5 138.167,65.5 155.5,65.5 Z"/></g>
<g><path style="opacity:1" fill="#d01917" d="M 154.5,71.5 C 137.833,71.5 121.167,71.5 104.5,71.5C 104.5,69.8333 104.5,68.1667 104.5,66.5C 121.167,66.5 137.833,66.5 154.5,66.5C 154.5,68.1667 154.5,69.8333 154.5,71.5 Z"/></g>
<g><path style="opacity:1" fill="#691111" d="M 85.5,65.5 C 86.4834,69.2984 86.8168,73.2984 86.5,77.5C 68.8333,77.5 51.1667,77.5 33.5,77.5C 33.5,75.1667 33.5,72.8333 33.5,70.5C 33.8333,70.5 34.1667,70.5 34.5,70.5C 34.5,70.8333 34.5,71.1667 34.5,71.5C 34.5,73.1667 34.5,74.8333 34.5,76.5C 51.5,76.5 68.5,76.5 85.5,76.5C 85.5,72.8333 85.5,69.1667 85.5,65.5 Z"/></g>
<g><path style="opacity:1" fill="#6e1111" d="M 154.5,71.5 C 154.833,71.5 155.167,71.5 155.5,71.5C 155.5,73.5 155.5,75.5 155.5,77.5C 138.167,77.5 120.833,77.5 103.5,77.5C 103.5,77.1667 103.5,76.8333 103.5,76.5C 120.5,76.5 137.5,76.5 154.5,76.5C 154.5,74.8333 154.5,73.1667 154.5,71.5 Z"/></g>
<g><path style="opacity:0.004" fill="#fefffe" d="M -0.5,77.5 C 0.833333,78.1667 0.833333,78.1667 -0.5,77.5 Z"/></g>
<g><path style="opacity:1" fill="#b02020" d="M 27.5,77.5 C 27.5,86.8333 27.5,96.1667 27.5,105.5C 25.8333,105.5 24.1667,105.5 22.5,105.5C 22.5,103.5 22.5,101.5 22.5,99.5C 22.5,92.1667 22.5,84.8333 22.5,77.5C 24.1667,77.5 25.8333,77.5 27.5,77.5 Z"/></g>
<g><path style="opacity:1" fill="#700e11" d="M 201.5,77.5 C 202.658,86.6575 202.824,95.9908 202,105.5C 199.959,106.423 197.792,106.756 195.5,106.5C 195.5,96.5 195.5,86.5 195.5,76.5C 197.735,76.2053 199.735,76.5386 201.5,77.5 Z"/></g>
<g><path style="opacity:1" fill="#b42120" d="M 201.5,77.5 C 201.5,86.5 201.5,95.5 201.5,104.5C 199.833,104.5 198.167,104.5 196.5,104.5C 196.5,95.5 196.5,86.5 196.5,77.5C 198.167,77.5 199.833,77.5 201.5,77.5 Z"/></g>
<g><path style="opacity:1" fill="#cf1b18" d="M 197.5,78.5 C 198.5,78.5 199.5,78.5 200.5,78.5C 200.831,85.8635 200.497,93.1968 199.5,100.5C 198.914,100.291 198.414,99.9574 198,99.5C 197.5,92.5079 197.334,85.5079 197.5,78.5 Z"/></g>
<g><path style="opacity:1" fill="#780e0d" d="M 27.5,77.5 C 25.8333,77.5 24.1667,77.5 22.5,77.5C 22.5,84.8333 22.5,92.1667 22.5,99.5C 22.1667,99.5 21.8333,99.5 21.5,99.5C 21.5,91.8333 21.5,84.1667 21.5,76.5C 23.7354,76.2053 25.7354,76.5386 27.5,77.5 Z"/></g>
<g><path style="opacity:1" fill="#d21919" d="M 23.5,78.5 C 24.5,78.5 25.5,78.5 26.5,78.5C 26.8306,85.8635 26.4973,93.1968 25.5,100.5C 24.914,100.291 24.414,99.9574 24,99.5C 23.5004,92.5079 23.3337,85.5079 23.5,78.5 Z"/></g>
<g><path style="opacity:1" fill="#741114" d="M 161.5,77.5 C 163.265,76.5386 165.265,76.2053 167.5,76.5C 167.5,86.5 167.5,96.5 167.5,106.5C 165.208,106.756 163.041,106.423 161,105.5C 160.176,95.9908 160.342,86.6575 161.5,77.5 Z"/></g>
<g><path style="opacity:1" fill="#c12525" d="M 161.5,77.5 C 163.167,77.5 164.833,77.5 166.5,77.5C 166.825,85.3516 166.492,93.0182 165.5,100.5C 165.5,93.1667 165.5,85.8333 165.5,78.5C 164.5,78.5 163.5,78.5 162.5,78.5C 162.5,85.8333 162.5,93.1667 162.5,100.5C 161.508,93.0182 161.175,85.3516 161.5,77.5 Z"/></g>
<g><path style="opacity:1" fill="#d51816" d="M 165.5,100.5 C 164.5,100.5 163.5,100.5 162.5,100.5C 162.5,93.1667 162.5,85.8333 162.5,78.5C 163.5,78.5 164.5,78.5 165.5,78.5C 165.5,85.8333 165.5,93.1667 165.5,100.5 Z"/></g>
<g><path style="opacity:1" fill="#971f1f" d="M 91.5,76.5 C 93.5,76.5 95.5,76.5 97.5,76.5C 97.5,86.5 97.5,96.5 97.5,106.5C 95.5,106.5 93.5,106.5 91.5,106.5C 91.5,96.5 91.5,86.5 91.5,76.5 Z"/></g>
<g><path style="opacity:1" fill="#200100" d="M 137.5,100.5 C 136.167,100.5 134.833,100.5 133.5,100.5C 132.833,100.5 132.5,100.167 132.5,99.5C 132.5,97.8333 132.5,96.1667 132.5,94.5C 130.5,94.5 128.5,94.5 126.5,94.5C 126.5,96.1667 126.5,97.8333 126.5,99.5C 126.158,100.338 125.492,100.672 124.5,100.5C 123.5,100.5 122.5,100.5 121.5,100.5C 122.456,99.3406 123.456,98.1739 124.5,97C 123.01,94.4667 123.677,92.6334 126.5,91.5C 128.833,92.1667 131.167,92.8333 133.5,93.5C 134.452,95.0453 134.785,96.712 134.5,98.5C 136.179,98.2852 137.179,98.9519 137.5,100.5 Z"/></g>
<g><path style="opacity:1" fill="#962e30" d="M 132.5,99.5 C 131.566,98.4324 131.232,97.099 131.5,95.5C 130.167,95.5 128.833,95.5 127.5,95.5C 127.768,97.099 127.434,98.4324 126.5,99.5C 126.5,97.8333 126.5,96.1667 126.5,94.5C 128.5,94.5 130.5,94.5 132.5,94.5C 132.5,96.1667 132.5,97.8333 132.5,99.5 Z"/></g>
<g><path style="opacity:1" fill="#d01a19" d="M 92.5,78.5 C 93.8333,78.5 95.1667,78.5 96.5,78.5C 96.5,85.8333 96.5,93.1667 96.5,100.5C 95.1667,100.5 93.8333,100.5 92.5,100.5C 92.5,93.1667 92.5,85.8333 92.5,78.5 Z"/></g>
<g><path style="opacity:1" fill="#711d1e" d="M 68.5,88.5 C 74.5,88.5 80.5,88.5 86.5,88.5C 86.5,92.5 86.5,96.5 86.5,100.5C 80.5,100.5 74.5,100.5 68.5,100.5C 68.5,96.5 68.5,92.5 68.5,88.5 Z"/></g>
<g><path style="opacity:1" fill="#9f1413" d="M 69.5,89.5 C 74.8333,89.5 80.1667,89.5 85.5,89.5C 85.5,92.8333 85.5,96.1667 85.5,99.5C 80.4889,99.6659 75.4889,99.4993 70.5,99C 69.5495,95.9433 69.2161,92.7766 69.5,89.5 Z"/></g>
<g><path style="opacity:1" fill="#cf1c1a" d="M 70.5,90.5 C 75.1667,90.5 79.8333,90.5 84.5,90.5C 84.5,91.8333 84.5,93.1667 84.5,94.5C 79.8333,94.5 75.1667,94.5 70.5,94.5C 70.5,93.1667 70.5,91.8333 70.5,90.5 Z"/></g>
<g><path style="opacity:1" fill="#cd1c1c" d="M 132.5,99.5 C 132.5,100.167 132.833,100.5 133.5,100.5C 134.568,101.434 135.901,101.768 137.5,101.5C 137.5,102.833 137.5,104.167 137.5,105.5C 135.5,105.5 133.5,105.5 131.5,105.5C 131.5,107.167 131.5,108.833 131.5,110.5C 130.167,110.5 128.833,110.5 127.5,110.5C 127.5,108.833 127.5,107.167 127.5,105.5C 125.5,105.5 123.5,105.5 121.5,105.5C 121.5,104.167 121.5,102.833 121.5,101.5C 122.791,101.737 123.791,101.404 124.5,100.5C 125.492,100.672 126.158,100.338 126.5,99.5C 127.434,98.4324 127.768,97.099 127.5,95.5C 128.833,95.5 130.167,95.5 131.5,95.5C 131.232,97.099 131.566,98.4324 132.5,99.5 Z"/></g>
<g><path style="opacity:1" fill="#5a1012" d="M 27.5,77.5 C 28.4938,86.9856 28.8271,96.6522 28.5,106.5C 26.1667,106.5 23.8333,106.5 21.5,106.5C 21.5,104.167 21.5,101.833 21.5,99.5C 21.8333,99.5 22.1667,99.5 22.5,99.5C 22.5,101.5 22.5,103.5 22.5,105.5C 24.1667,105.5 25.8333,105.5 27.5,105.5C 27.5,96.1667 27.5,86.8333 27.5,77.5 Z"/></g>
<g><path style="opacity:1" fill="#7b1c1c" d="M 33.5,100.5 C 39.5,100.5 45.5,100.5 51.5,100.5C 51.5,104.5 51.5,108.5 51.5,112.5C 45.5,112.5 39.5,112.5 33.5,112.5C 33.5,108.5 33.5,104.5 33.5,100.5 Z"/></g>
<g><path style="opacity:1" fill="#93110f" d="M 34.5,106.5 C 39.8333,106.5 45.1667,106.5 50.5,106.5C 50.5,107.833 50.5,109.167 50.5,110.5C 45.1667,110.5 39.8333,110.5 34.5,110.5C 34.5,109.167 34.5,107.833 34.5,106.5 Z"/></g>
<g><path style="opacity:1" fill="#c31b1b" d="M 50.5,106.5 C 45.1667,106.5 39.8333,106.5 34.5,106.5C 34.5,104.833 34.5,103.167 34.5,101.5C 39.8333,101.5 45.1667,101.5 50.5,101.5C 50.5,103.167 50.5,104.833 50.5,106.5 Z"/></g>
<g><path style="opacity:1" fill="#751010" d="M 21.5,111.5 C 23.8333,111.5 26.1667,111.5 28.5,111.5C 28.6665,121.172 28.4998,130.839 28,140.5C 25.9592,141.423 23.7925,141.756 21.5,141.5C 21.5,131.5 21.5,121.5 21.5,111.5 Z"/></g>
<g><path style="opacity:1" fill="#78191c" d="M 121.5,100.5 C 122.5,100.5 123.5,100.5 124.5,100.5C 123.791,101.404 122.791,101.737 121.5,101.5C 121.5,102.833 121.5,104.167 121.5,105.5C 122.591,108.428 124.591,110.594 127.5,112C 130.8,111.954 134.134,111.788 137.5,111.5C 137.5,109.5 137.5,107.5 137.5,105.5C 137.5,104.167 137.5,102.833 137.5,101.5C 135.901,101.768 134.568,101.434 133.5,100.5C 134.833,100.5 136.167,100.5 137.5,100.5C 138.483,104.298 138.817,108.298 138.5,112.5C 136.5,112.5 134.5,112.5 132.5,112.5C 132.5,114.167 132.5,115.833 132.5,117.5C 130.5,117.5 128.5,117.5 126.5,117.5C 126.5,115.833 126.5,114.167 126.5,112.5C 124.5,112.5 122.5,112.5 120.5,112.5C 120.183,108.298 120.517,104.298 121.5,100.5 Z"/></g>
<g><path style="opacity:1" fill="#aa1715" d="M 121.5,105.5 C 123.5,105.5 125.5,105.5 127.5,105.5C 127.5,107.167 127.5,108.833 127.5,110.5C 128.833,110.5 130.167,110.5 131.5,110.5C 131.5,108.833 131.5,107.167 131.5,105.5C 133.5,105.5 135.5,105.5 137.5,105.5C 137.5,107.5 137.5,109.5 137.5,111.5C 134.134,111.788 130.8,111.954 127.5,112C 124.591,110.594 122.591,108.428 121.5,105.5 Z"/></g>
<g><path style="opacity:1" fill="#6b0e0e" d="M 195.5,111.5 C 197.833,111.5 200.167,111.5 202.5,111.5C 202.5,121.5 202.5,131.5 202.5,141.5C 200.167,141.5 197.833,141.5 195.5,141.5C 195.5,131.5 195.5,121.5 195.5,111.5 Z"/></g>
<g><path style="opacity:0.004" fill="#fefffe" d="M 5.5,118.5 C 6.83333,119.167 6.83333,119.167 5.5,118.5 Z"/></g>
<g><path style="opacity:1" fill="#a52220" d="M 97.5,135.5 C 97.1667,135.5 96.8333,135.5 96.5,135.5C 96.5,127.833 96.5,120.167 96.5,112.5C 95.1667,112.5 93.8333,112.5 92.5,112.5C 92.5,120.167 92.5,127.833 92.5,135.5C 92.1667,135.5 91.8333,135.5 91.5,135.5C 91.5,127.5 91.5,119.5 91.5,111.5C 93.5,111.5 95.5,111.5 97.5,111.5C 97.5,119.5 97.5,127.5 97.5,135.5 Z"/></g>
<g><path style="opacity:1" fill="#c02423" d="M 23.5,112.5 C 23.5,119.833 23.5,127.167 23.5,134.5C 24.5,134.5 25.5,134.5 26.5,134.5C 26.5,127.167 26.5,119.833 26.5,112.5C 27.492,119.982 27.8254,127.648 27.5,135.5C 25.8333,135.5 24.1667,135.5 22.5,135.5C 22.1746,127.648 22.508,119.982 23.5,112.5 Z"/></g>
<g><path style="opacity:1" fill="#d31919" d="M 23.5,112.5 C 24.5,112.5 25.5,112.5 26.5,112.5C 26.5,119.833 26.5,127.167 26.5,134.5C 25.5,134.5 24.5,134.5 23.5,134.5C 23.5,127.167 23.5,119.833 23.5,112.5 Z"/></g>
<g><path style="opacity:1" fill="#bf1e1d" d="M 196.5,112.5 C 198.167,112.5 199.833,112.5 201.5,112.5C 201.5,121.833 201.5,131.167 201.5,140.5C 199.833,140.5 198.167,140.5 196.5,140.5C 196.5,131.167 196.5,121.833 196.5,112.5 Z"/></g>
<g><path style="opacity:1" fill="#cd1b1a" d="M 96.5,135.5 C 95.1667,135.5 93.8333,135.5 92.5,135.5C 92.5,127.833 92.5,120.167 92.5,112.5C 93.8333,112.5 95.1667,112.5 96.5,112.5C 96.5,120.167 96.5,127.833 96.5,135.5 Z"/></g>
<g><path style="opacity:0.004" fill="#fefffe" d="M 221.5,126.5 C 222.833,127.167 222.833,127.167 221.5,126.5 Z"/></g>
<g><path style="opacity:1" fill="#771014" d="M 160.5,111.5 C 162.833,111.5 165.167,111.5 167.5,111.5C 167.5,121.5 167.5,131.5 167.5,141.5C 165.208,141.756 163.041,141.423 161,140.5C 160.5,130.839 160.334,121.172 160.5,111.5 Z"/></g>
<g><path style="opacity:1" fill="#cc1e1c" d="M 161.5,112.5 C 163.167,112.5 164.833,112.5 166.5,112.5C 166.5,120.167 166.5,127.833 166.5,135.5C 164.549,135.773 163.049,135.107 162,133.5C 161.5,126.508 161.334,119.508 161.5,112.5 Z"/></g>
<g><path style="opacity:1" fill="#741512" d="M 91.5,135.5 C 91.8333,135.5 92.1667,135.5 92.5,135.5C 93.8333,135.5 95.1667,135.5 96.5,135.5C 96.8333,135.5 97.1667,135.5 97.5,135.5C 97.5,137.5 97.5,139.5 97.5,141.5C 95.5,141.5 93.5,141.5 91.5,141.5C 91.5,139.5 91.5,137.5 91.5,135.5 Z"/></g>
<g><path style="opacity:1" fill="#691315" d="M 103.5,141.5 C 109.31,140.51 115.31,140.177 121.5,140.5C 121.5,144.5 121.5,148.5 121.5,152.5C 115.5,152.5 109.5,152.5 103.5,152.5C 103.5,150.5 103.5,148.5 103.5,146.5C 103.833,146.5 104.167,146.5 104.5,146.5C 104.5,148.167 104.5,149.833 104.5,151.5C 109.544,151.827 114.544,151.494 119.5,150.5C 120.407,147.579 120.74,144.579 120.5,141.5C 114.833,141.5 109.167,141.5 103.5,141.5 Z"/></g>
<g><path style="opacity:1" fill="#6c1a19" d="M 190.5,141.5 C 184.833,141.5 179.167,141.5 173.5,141.5C 173.5,144.833 173.5,148.167 173.5,151.5C 178.833,151.5 184.167,151.5 189.5,151.5C 189.198,148.941 189.532,146.607 190.5,144.5C 190.5,147.167 190.5,149.833 190.5,152.5C 184.5,152.5 178.5,152.5 172.5,152.5C 172.5,148.5 172.5,144.5 172.5,140.5C 178.69,140.177 184.69,140.51 190.5,141.5 Z"/></g>
<g><path style="opacity:1" fill="#c01c1d" d="M 33.5,141.5 C 50.8333,141.5 68.1667,141.5 85.5,141.5C 85.5,143.167 85.5,144.833 85.5,146.5C 85.1667,146.5 84.8333,146.5 84.5,146.5C 68.0084,147.497 51.3417,147.83 34.5,147.5C 34.5,146.833 34.1667,146.5 33.5,146.5C 33.5,144.833 33.5,143.167 33.5,141.5 Z"/></g>
<g><path style="opacity:1" fill="#d21918" d="M 84.5,146.5 C 83.8444,145.722 83.0111,145.056 82,144.5C 66.5357,145.477 51.0357,145.81 35.5,145.5C 35.5,144.5 35.5,143.5 35.5,142.5C 51.8333,142.5 68.1667,142.5 84.5,142.5C 84.5,143.833 84.5,145.167 84.5,146.5 Z"/></g>
<g><path style="opacity:1" fill="#9f1616" d="M 103.5,141.5 C 109.167,141.5 114.833,141.5 120.5,141.5C 120.74,144.579 120.407,147.579 119.5,150.5C 114.544,151.494 109.544,151.827 104.5,151.5C 104.5,149.833 104.5,148.167 104.5,146.5C 104.167,146.5 103.833,146.5 103.5,146.5C 103.5,144.833 103.5,143.167 103.5,141.5 Z"/></g>
<g><path style="opacity:1" fill="#cf1b1c" d="M 104.5,146.5 C 104.5,145.167 104.5,143.833 104.5,142.5C 109.167,142.5 113.833,142.5 118.5,142.5C 118.5,143.833 118.5,145.167 118.5,146.5C 113.833,146.5 109.167,146.5 104.5,146.5 Z"/></g>
<g><path style="opacity:1" fill="#971413" d="M 190.5,141.5 C 190.5,142.5 190.5,143.5 190.5,144.5C 189.532,146.607 189.198,148.941 189.5,151.5C 184.167,151.5 178.833,151.5 173.5,151.5C 173.5,148.167 173.5,144.833 173.5,141.5C 179.167,141.5 184.833,141.5 190.5,141.5 Z"/></g>
<g><path style="opacity:1" fill="#d01c1b" d="M 174.5,142.5 C 179.167,142.5 183.833,142.5 188.5,142.5C 188.5,143.833 188.5,145.167 188.5,146.5C 183.833,146.5 179.167,146.5 174.5,146.5C 174.5,145.167 174.5,143.833 174.5,142.5 Z"/></g>
<g><path style="opacity:1" fill="#651417" d="M 33.5,141.5 C 50.9921,140.503 68.6588,140.17 86.5,140.5C 86.797,144.767 86.4637,148.934 85.5,153C 68.1699,153.5 50.8365,153.667 33.5,153.5C 33.5,151.167 33.5,148.833 33.5,146.5C 34.1667,146.5 34.5,146.833 34.5,147.5C 34.5,148.833 34.5,150.167 34.5,151.5C 51.1667,151.5 67.8333,151.5 84.5,151.5C 84.6287,149.784 84.962,148.117 85.5,146.5C 85.5,144.833 85.5,143.167 85.5,141.5C 68.1667,141.5 50.8333,141.5 33.5,141.5 Z"/></g>
<g><path style="opacity:1" fill="#921111" d="M 84.5,146.5 C 84.8333,146.5 85.1667,146.5 85.5,146.5C 84.962,148.117 84.6287,149.784 84.5,151.5C 67.8333,151.5 51.1667,151.5 34.5,151.5C 34.5,150.167 34.5,148.833 34.5,147.5C 51.3417,147.83 68.0084,147.497 84.5,146.5 Z"/></g>
<g><path style="opacity:1" fill="#902625" d="M 126.5,152.5 C 128.5,152.5 130.5,152.5 132.5,152.5C 132.5,162.167 132.5,171.833 132.5,181.5C 130.5,181.5 128.5,181.5 126.5,181.5C 126.5,171.833 126.5,162.167 126.5,152.5 Z"/></g>
<g><path style="opacity:1" fill="#c01d1d" d="M 127.5,153.5 C 128.833,153.5 130.167,153.5 131.5,153.5C 131.68,162.528 131.347,171.528 130.5,180.5C 129.5,180.5 128.5,180.5 127.5,180.5C 127.5,171.5 127.5,162.5 127.5,153.5 Z"/></g>
<g><path style="opacity:0.004" fill="#fefffe" d="M 80.5,167.5 C 81.8333,168.167 81.8333,168.167 80.5,167.5 Z"/></g>
<g><path style="opacity:0.004" fill="#fefffe" d="M 50.5,172.5 C 51.8333,173.167 51.8333,173.167 50.5,172.5 Z"/></g>
<g><path style="opacity:0.004" fill="#fefffe" d="M 215.5,174.5 C 216.833,175.167 216.833,175.167 215.5,174.5 Z"/></g>
<g><path style="opacity:0.004" fill="#fefffe" d="M 65.5,178.5 C 66.8333,179.167 66.8333,179.167 65.5,178.5 Z"/></g>
<g><path style="opacity:0.004" fill="#fefffe" d="M 38.5,180.5 C 39.8333,181.167 39.8333,181.167 38.5,180.5 Z"/></g>
<g><path style="opacity:1" fill="#751217" d="M 160.5,152.5 C 162.833,152.5 165.167,152.5 167.5,152.5C 167.5,162.167 167.5,171.833 167.5,181.5C 165.167,181.5 162.833,181.5 160.5,181.5C 160.5,171.833 160.5,162.167 160.5,152.5 Z"/></g>
<g><path style="opacity:1" fill="#cd1e1d" d="M 161.5,153.5 C 163.167,153.5 164.833,153.5 166.5,153.5C 166.5,160.833 166.5,168.167 166.5,175.5C 164.833,175.5 163.167,175.5 161.5,175.5C 161.5,168.167 161.5,160.833 161.5,153.5 Z"/></g>
<g><path style="opacity:0.004" fill="#fefffe" d="M 212.5,180.5 C 213.833,181.167 213.833,181.167 212.5,180.5 Z"/></g>
<g><path style="opacity:0.004" fill="#fefffe" d="M 8.5,181.5 C 9.83333,182.167 9.83333,182.167 8.5,181.5 Z"/></g>
<g><path style="opacity:1" fill="#cb1c1a" d="M 138.5,181.5 C 144.167,181.5 149.833,181.5 155.5,181.5C 155.5,183.5 155.5,185.5 155.5,187.5C 155.167,187.5 154.833,187.5 154.5,187.5C 149.167,187.5 143.833,187.5 138.5,187.5C 138.5,185.5 138.5,183.5 138.5,181.5 Z"/></g>
<g><path style="opacity:0.004" fill="#fefffe" d="M 221.5,188.5 C 222.833,189.167 222.833,189.167 221.5,188.5 Z"/></g>
<g><path style="opacity:1" fill="#6c1213" d="M 138.5,181.5 C 138.5,183.5 138.5,185.5 138.5,187.5C 138.5,189.167 138.5,190.833 138.5,192.5C 143.833,192.5 149.167,192.5 154.5,192.5C 154.5,190.833 154.5,189.167 154.5,187.5C 154.833,187.5 155.167,187.5 155.5,187.5C 155.5,189.5 155.5,191.5 155.5,193.5C 149.5,193.5 143.5,193.5 137.5,193.5C 137.183,189.298 137.517,185.298 138.5,181.5 Z"/></g>
<g><path style="opacity:1" fill="#911212" d="M 138.5,187.5 C 143.833,187.5 149.167,187.5 154.5,187.5C 154.5,189.167 154.5,190.833 154.5,192.5C 149.167,192.5 143.833,192.5 138.5,192.5C 138.5,190.833 138.5,189.167 138.5,187.5 Z"/></g>
<g><path style="opacity:0.004" fill="#fefffe" d="M -0.5,194.5 C 0.833333,195.167 0.833333,195.167 -0.5,194.5 Z"/></g>
<g><path style="opacity:0.004" fill="#fefffe" d="M 98.5,198.5 C 99.8333,199.167 99.8333,199.167 98.5,198.5 Z"/></g>
<g><path style="opacity:0.004" fill="#fefffe" d="M 182.5,201.5 C 183.833,202.167 183.833,202.167 182.5,201.5 Z"/></g>
<g><path style="opacity:0.004" fill="#fefffe" d="M 8.5,204.5 C 9.83333,205.167 9.83333,205.167 8.5,204.5 Z"/></g>
<g><path style="opacity:0.004" fill="#fefffe" d="M 83.5,206.5 C 84.8333,207.167 84.8333,207.167 83.5,206.5 Z"/></g>
<g><path style="opacity:0.004" fill="#fefffe" d="M 122.5,207.5 C 123.833,208.167 123.833,208.167 122.5,207.5 Z"/></g>
<g><path style="opacity:0.004" fill="#fefffe" d="M 125.5,208.5 C 126.833,209.167 126.833,209.167 125.5,208.5 Z"/></g>
<g><path style="opacity:0.004" fill="#fefffe" d="M 80.5,210.5 C 81.8333,211.167 81.8333,211.167 80.5,210.5 Z"/></g>
<g><path style="opacity:0.004" fill="#fefffe" d="M 59.5,212.5 C 60.8333,213.167 60.8333,213.167 59.5,212.5 Z"/></g>
<g><path style="opacity:0.004" fill="#fefffe" d="M 44.5,220.5 C 45.8333,221.167 45.8333,221.167 44.5,220.5 Z"/></g>
<g><path style="opacity:0.004" fill="#fefffe" d="M 80.5,222.5 C 81.8333,223.167 81.8333,223.167 80.5,222.5 Z"/></g>
<g><path style="opacity:0.004" fill="#fefffe" d="M 101.5,222.5 C 102.833,223.167 102.833,223.167 101.5,222.5 Z"/></g>
<g><path style="opacity:0.004" fill="#fefffe" d="M 132.5,224.5 C 131.833,223.167 131.833,223.167 132.5,224.5 Z"/></g>
</svg>
