<?xml version="1.0" encoding="UTF-8"?>
<!DOCTYPE svg PUBLIC "-//W3C//DTD SVG 1.1//EN" "http://www.w3.org/Graphics/SVG/1.1/DTD/svg11.dtd">
<svg xmlns="http://www.w3.org/2000/svg" version="1.1" width="348px" height="348px" style="shape-rendering:geometricPrecision; text-rendering:geometricPrecision; image-rendering:optimizeQuality; fill-rule:evenodd; clip-rule:evenodd" xmlns:xlink="http://www.w3.org/1999/xlink">
<g><path style="opacity:1" fill="#f6f6f6" d="M -0.5,-0.5 C 115.5,-0.5 231.5,-0.5 347.5,-0.5C 347.5,115.5 347.5,231.5 347.5,347.5C 231.5,347.5 115.5,347.5 -0.5,347.5C -0.5,231.5 -0.5,115.5 -0.5,-0.5 Z"/></g>
<g><path style="opacity:1" fill="#1567b2" d="M 52.5,116.5 C 56.5418,118.362 60.2084,120.862 63.5,124C 54.0535,130.013 52.2202,137.847 58,147.5C 65.1453,152.976 72.312,158.309 79.5,163.5C 78.9569,163.56 78.6236,163.893 78.5,164.5C 81.1089,170.256 81.9422,176.256 81,182.5C 80.6905,181.234 80.1905,180.067 79.5,179C 80.3366,177.989 80.67,176.822 80.5,175.5C 76.6727,175.44 76.006,176.607 78.5,179C 76.1927,180.828 76.526,182.494 79.5,184C 79.4416,188.1 79.1082,192.267 78.5,196.5C 80.9734,198.098 80.9734,199.598 78.5,201C 79.1667,201.667 79.8333,202.333 80.5,203C 78.6061,204.101 77.9394,205.434 78.5,207C 80.5,209.333 82.5,211.667 84.5,214C 84.0426,214.414 83.7093,214.914 83.5,215.5C 84.2357,218.353 85.2357,221.186 86.5,224C 86.6599,226.605 86.3266,228.939 85.5,231C 86.3333,231.833 87.1667,232.667 88,233.5C 92.5912,227.948 93.4246,228.448 90.5,235C 94.28,238.021 96.78,241.854 98,246.5C 101.154,251.349 104.988,254.849 109.5,257C 108.346,257.914 108.513,258.747 110,259.5C 110.333,259.167 110.667,258.833 111,258.5C 112.667,260.833 114.333,263.167 116,265.5C 116.333,265.167 116.667,264.833 117,264.5C 118.333,268.5 119.667,268.5 121,264.5C 121.667,269.833 122.333,269.833 123,264.5C 123.333,265.833 123.667,267.167 124,268.5C 124.667,260.5 125.333,260.5 126,268.5C 126.249,267.376 126.749,266.376 127.5,265.5C 129.485,267.457 130.985,269.79 132,272.5C 132.667,268.5 133.333,268.5 134,272.5C 134.333,271.167 134.667,269.833 135,268.5C 136.333,271.833 137.667,275.167 139,278.5C 139.667,270.5 140.333,270.5 141,278.5C 141.667,273.167 142.333,273.167 143,278.5C 143.333,277.167 143.667,275.833 144,274.5C 144.714,277.595 145.714,280.595 147,283.5C 147.359,280.456 148.026,280.122 149,282.5C 149.667,279.833 150.333,279.833 151,282.5C 152.16,280.203 153.16,280.536 154,283.5C 154.667,280.833 155.333,280.833 156,283.5C 156.667,280.833 157.333,280.833 158,283.5C 158.667,280.833 159.333,280.833 160,283.5C 160.667,280.833 161.333,280.833 162,283.5C 162.667,279.5 163.333,279.5 164,283.5C 164.333,282.167 164.667,280.833 165,279.5C 165.273,281.101 165.773,282.601 166.5,284C 165.552,284.483 164.552,284.649 163.5,284.5C 164.1,291.309 166.266,291.976 170,286.5C 170.333,287.167 170.667,287.833 171,288.5C 171.667,287.167 172.333,285.833 173,284.5C 173.667,287.167 174.333,287.167 175,284.5C 175.667,287.167 176.333,287.167 177,284.5C 177.667,287.167 178.333,287.167 179,284.5C 179.667,287.167 180.333,287.167 181,284.5C 181.974,286.878 182.641,286.544 183,283.5C 183.667,287.5 184.333,287.5 185,283.5C 185.333,284.5 185.667,285.5 186,286.5C 187.53,287.636 188.863,288.636 190,289.5C 190.667,288.167 191.333,286.833 192,285.5C 192.667,288.167 193.333,288.167 194,285.5C 194.667,290.833 195.333,290.833 196,285.5C 196.667,288.167 197.333,288.167 198,285.5C 198.667,288.167 199.333,288.167 200,285.5C 200.667,289.5 201.333,289.5 202,285.5C 202.667,288.167 203.333,288.167 204,285.5C 204.333,286.5 204.667,287.5 205,288.5C 205.667,286.5 206.333,284.5 207,282.5C 207.667,287.833 208.333,287.833 209,282.5C 209.667,286.5 210.333,286.5 211,282.5C 211.667,286.5 212.333,286.5 213,282.5C 213.333,283.167 213.667,283.833 214,284.5C 214.388,283.572 215.055,282.905 216,282.5C 217.63,283.547 219.296,284.547 221,285.5C 221.464,284.906 221.631,284.239 221.5,283.5C 236.663,291.914 251.663,300.581 266.5,309.5C 266.44,310.043 266.107,310.376 265.5,310.5C 263.167,309.167 260.833,307.833 258.5,306.5C 256.675,307.571 255.508,306.904 255,304.5C 254.333,307.167 253.667,307.167 253,304.5C 252.085,305.328 251.419,306.328 251,307.5C 250.333,304.833 249.667,304.833 249,307.5C 248.667,306.833 248.333,306.167 248,305.5C 247.333,310.833 246.667,310.833 246,305.5C 245.667,306.833 245.333,308.167 245,309.5C 244.667,307.5 244.333,305.5 244,303.5C 243.667,307.167 243.333,310.833 243,314.5C 242.667,311.833 242.333,309.167 242,306.5C 241.536,312.175 240.869,312.508 240,307.5C 239.333,312.833 238.667,312.833 238,307.5C 237.667,308.833 237.333,310.167 237,311.5C 236.333,308.833 235.667,308.833 235,311.5C 234.667,310.833 234.333,310.167 234,309.5C 233.16,312.464 232.16,312.797 231,310.5C 230.026,312.878 229.359,312.544 229,309.5C 227.667,312.167 226.333,314.833 225,317.5C 224.333,313.5 223.667,313.5 223,317.5C 222.667,316.167 222.333,314.833 222,313.5C 221.333,316.167 220.667,318.833 220,321.5C 219.667,320.167 219.333,318.833 219,317.5C 218.333,320.167 217.667,320.167 217,317.5C 216.333,320.167 215.667,320.167 215,317.5C 214.138,319.087 213.471,320.754 213,322.5C 212.333,318.5 211.667,318.5 211,322.5C 210.667,321.5 210.333,320.5 210,319.5C 209.333,320.833 208.667,322.167 208,323.5C 207.333,322.167 206.667,320.833 206,319.5C 205.333,323.5 204.667,323.5 204,319.5C 203.647,321.074 202.98,322.741 202,324.5C 200.84,322.203 199.84,322.536 199,325.5C 198.333,322.833 197.667,322.833 197,325.5C 196.16,322.536 195.16,322.203 194,324.5C 192.84,322.203 191.84,322.536 191,325.5C 190.16,322.536 189.16,322.203 188,324.5C 186.84,322.203 185.84,322.536 185,325.5C 184.581,324.328 183.915,323.328 183,322.5C 182.383,323.449 182.549,324.282 183.5,325C 182.667,325.833 181.833,326.667 181,327.5C 179.426,326.016 178.093,324.349 177,322.5C 176.333,325.167 175.667,325.167 175,322.5C 174.085,323.328 173.419,324.328 173,325.5C 172.16,322.536 171.16,322.203 170,324.5C 169.667,323.833 169.333,323.167 169,322.5C 166.76,326.588 164.927,326.422 163.5,322C 163.735,321.127 164.069,320.293 164.5,319.5C 163.726,318.289 162.893,318.289 162,319.5C 161.333,316.833 160.667,316.833 160,319.5C 159.333,315.5 158.667,315.5 158,319.5C 157.333,312.833 156.667,312.833 156,319.5C 155.667,318.167 155.333,316.833 155,315.5C 153.959,323.879 152.626,324.212 151,316.5C 150.333,320.5 149.667,320.5 149,316.5C 148.333,323.167 147.667,323.167 147,316.5C 146.333,319.167 145.667,319.167 145,316.5C 144.667,317.167 144.333,317.833 144,318.5C 143.333,317.167 142.667,315.833 142,314.5C 141.333,317.167 140.667,317.167 140,314.5C 139.333,317.167 138.667,317.167 138,314.5C 137.333,319.833 136.667,319.833 136,314.5C 133.528,312.702 131.861,310.368 131,307.5C 130.333,311.5 129.667,311.5 129,307.5C 128.086,311.185 127.419,310.852 127,306.5C 126.333,311.833 125.667,311.833 125,306.5C 124.333,311.833 123.667,311.833 123,306.5C 122.667,307.833 122.333,309.167 122,310.5C 121.751,307.823 120.751,305.49 119,303.5C 118.333,306.167 117.667,306.167 117,303.5C 116.667,304.167 116.333,304.833 116,305.5C 114.171,301.172 111.838,297.172 109,293.5C 108.333,294.167 107.667,294.833 107,295.5C 106.333,288.833 105.667,288.833 105,295.5C 104.5,295 104,294.5 103.5,294C 103.665,292.883 103.998,291.716 104.5,290.5C 102.851,288.35 101.018,286.35 99,284.5C 98.8068,287.181 97.8068,289.848 96,292.5C 95.1779,290.212 94.5112,287.878 94,285.5C 93.6667,286.833 93.3333,288.167 93,289.5C 92.3989,286.363 91.3989,283.363 90,280.5C 89.1376,282.087 88.4709,283.754 88,285.5C 87,283.833 86,282.167 85,280.5C 84.6667,281.5 84.3333,282.5 84,283.5C 82.5399,281.028 81.5399,278.361 81,275.5C 80.6667,276.167 80.3333,276.833 80,277.5C 79.0268,273.011 77.6935,272.678 76,276.5C 74.4851,274.323 72.9851,272.156 71.5,270C 73.1641,268.233 74.3308,268.733 75,271.5C 77.7344,270.638 77.9011,269.805 75.5,269C 77.9011,268.195 77.7344,267.362 75,266.5C 74.3333,259.833 73.6667,259.833 73,266.5C 72.3333,257.167 71.6667,257.167 71,266.5C 70.6667,263.5 70.3333,260.5 70,257.5C 69.6667,259.833 69.3333,262.167 69,264.5C 68.2228,261.571 68.3895,258.737 69.5,256C 68.522,254.025 67.1887,252.358 65.5,251C 64.263,247.305 63.4296,243.805 63,240.5C 62.8287,241.894 62.3287,242.728 61.5,243C 59.5657,241.333 57.899,238.333 56.5,234C 56.8333,233.667 57.1667,233.333 57.5,233C 56.3084,230.428 55.3084,227.761 54.5,225C 54.7591,223.739 55.4258,222.739 56.5,222C 55.2857,219.649 54.4523,217.149 54,214.5C 53.6667,215.833 53.3333,217.167 53,218.5C 52.3457,219.696 51.8457,219.696 51.5,218.5C 51.9867,217.554 52.3201,216.554 52.5,215.5C 51.077,209.807 49.7437,203.807 48.5,197.5C 49.021,195.139 49.3543,192.806 49.5,190.5C 47.5876,188.458 47.421,186.458 49,184.5C 49.3333,185.167 49.6667,185.833 50,186.5C 51.3104,184.868 51.8104,183.201 51.5,181.5C 50.1667,179.167 48.8333,176.833 47.5,174.5C 48.3554,173.707 49.1887,174.04 50,175.5C 51.452,174.093 51.2853,172.593 49.5,171C 52.5946,168.365 52.5946,165.365 49.5,162C 51.3348,161.072 51.6682,159.906 50.5,158.5C 51.0339,156.386 52.0339,154.552 53.5,153C 52.0183,150.408 52.3517,148.075 54.5,146C 53.8975,143.879 52.8975,141.546 51.5,139C 52.1667,138.333 52.8333,137.667 53.5,137C 53.7451,134.422 53.7451,131.755 53.5,129C 53.9444,127.238 54.4444,127.405 55,129.5C 56.152,127.351 57.652,125.518 59.5,124C 56.5724,121.91 54.2391,119.41 52.5,116.5 Z"/></g>
<g><path style="opacity:1" fill="#0961ac" d="M 40.5,107.5 C 44.8962,110.025 48.8962,113.025 52.5,116.5C 54.2391,119.41 56.5724,121.91 59.5,124C 57.652,125.518 56.152,127.351 55,129.5C 54.4444,127.405 53.9444,127.238 53.5,129C 53.7451,131.755 53.7451,134.422 53.5,137C 52.8333,137.667 52.1667,138.333 51.5,139C 52.8975,141.546 53.8975,143.879 54.5,146C 52.3517,148.075 52.0183,150.408 53.5,153C 52.0339,154.552 51.0339,156.386 50.5,158.5C 51.6682,159.906 51.3348,161.072 49.5,162C 52.5946,165.365 52.5946,168.365 49.5,171C 51.2853,172.593 51.452,174.093 50,175.5C 49.1887,174.04 48.3554,173.707 47.5,174.5C 48.8333,176.833 50.1667,179.167 51.5,181.5C 51.8104,183.201 51.3104,184.868 50,186.5C 49.6667,185.833 49.3333,185.167 49,184.5C 47.421,186.458 47.5876,188.458 49.5,190.5C 49.3543,192.806 49.021,195.139 48.5,197.5C 49.7437,203.807 51.077,209.807 52.5,215.5C 52.3201,216.554 51.9867,217.554 51.5,218.5C 51.8457,219.696 52.3457,219.696 53,218.5C 53.3333,217.167 53.6667,215.833 54,214.5C 54.4523,217.149 55.2857,219.649 56.5,222C 55.4258,222.739 54.7591,223.739 54.5,225C 55.3084,227.761 56.3084,230.428 57.5,233C 57.1667,233.333 56.8333,233.667 56.5,234C 57.899,238.333 59.5657,241.333 61.5,243C 62.3287,242.728 62.8287,241.894 63,240.5C 63.4296,243.805 64.263,247.305 65.5,251C 67.1887,252.358 68.522,254.025 69.5,256C 68.3895,258.737 68.2228,261.571 69,264.5C 69.3333,262.167 69.6667,259.833 70,257.5C 70.3333,260.5 70.6667,263.5 71,266.5C 71.6667,257.167 72.3333,257.167 73,266.5C 73.6667,259.833 74.3333,259.833 75,266.5C 77.7344,267.362 77.9011,268.195 75.5,269C 77.9011,269.805 77.7344,270.638 75,271.5C 74.3308,268.733 73.1641,268.233 71.5,270C 72.9851,272.156 74.4851,274.323 76,276.5C 77.6935,272.678 79.0268,273.011 80,277.5C 80.3333,276.833 80.6667,276.167 81,275.5C 81.5399,278.361 82.5399,281.028 84,283.5C 84.3333,282.5 84.6667,281.5 85,280.5C 86,282.167 87,283.833 88,285.5C 88.4709,283.754 89.1376,282.087 90,280.5C 91.3989,283.363 92.3989,286.363 93,289.5C 93.3333,288.167 93.6667,286.833 94,285.5C 94.5112,287.878 95.1779,290.212 96,292.5C 97.8068,289.848 98.8068,287.181 99,284.5C 101.018,286.35 102.851,288.35 104.5,290.5C 103.998,291.716 103.665,292.883 103.5,294C 104,294.5 104.5,295 105,295.5C 105.667,288.833 106.333,288.833 107,295.5C 107.667,294.833 108.333,294.167 109,293.5C 111.838,297.172 114.171,301.172 116,305.5C 116.333,304.833 116.667,304.167 117,303.5C 117.667,306.167 118.333,306.167 119,303.5C 120.751,305.49 121.751,307.823 122,310.5C 122.333,309.167 122.667,307.833 123,306.5C 123.667,311.833 124.333,311.833 125,306.5C 125.667,311.833 126.333,311.833 127,306.5C 127.419,310.852 128.086,311.185 129,307.5C 129.667,311.5 130.333,311.5 131,307.5C 131.861,310.368 133.528,312.702 136,314.5C 136.667,319.833 137.333,319.833 138,314.5C 138.667,317.167 139.333,317.167 140,314.5C 140.667,317.167 141.333,317.167 142,314.5C 142.667,315.833 143.333,317.167 144,318.5C 144.333,317.833 144.667,317.167 145,316.5C 145.667,319.167 146.333,319.167 147,316.5C 147.667,323.167 148.333,323.167 149,316.5C 149.667,320.5 150.333,320.5 151,316.5C 152.626,324.212 153.959,323.879 155,315.5C 155.333,316.833 155.667,318.167 156,319.5C 156.667,312.833 157.333,312.833 158,319.5C 158.667,315.5 159.333,315.5 160,319.5C 160.667,316.833 161.333,316.833 162,319.5C 162.893,318.289 163.726,318.289 164.5,319.5C 164.069,320.293 163.735,321.127 163.5,322C 164.927,326.422 166.76,326.588 169,322.5C 169.333,323.167 169.667,323.833 170,324.5C 171.16,322.203 172.16,322.536 173,325.5C 173.419,324.328 174.085,323.328 175,322.5C 175.667,325.167 176.333,325.167 177,322.5C 178.093,324.349 179.426,326.016 181,327.5C 181.833,326.667 182.667,325.833 183.5,325C 182.549,324.282 182.383,323.449 183,322.5C 183.915,323.328 184.581,324.328 185,325.5C 185.84,322.536 186.84,322.203 188,324.5C 189.16,322.203 190.16,322.536 191,325.5C 191.84,322.536 192.84,322.203 194,324.5C 195.16,322.203 196.16,322.536 197,325.5C 197.667,322.833 198.333,322.833 199,325.5C 199.84,322.536 200.84,322.203 202,324.5C 202.98,322.741 203.647,321.074 204,319.5C 204.667,323.5 205.333,323.5 206,319.5C 206.667,320.833 207.333,322.167 208,323.5C 208.667,322.167 209.333,320.833 210,319.5C 210.333,320.5 210.667,321.5 211,322.5C 211.667,318.5 212.333,318.5 213,322.5C 213.471,320.754 214.138,319.087 215,317.5C 215.667,320.167 216.333,320.167 217,317.5C 217.667,320.167 218.333,320.167 219,317.5C 219.333,318.833 219.667,320.167 220,321.5C 220.667,318.833 221.333,316.167 222,313.5C 222.333,314.833 222.667,316.167 223,317.5C 223.667,313.5 224.333,313.5 225,317.5C 226.333,314.833 227.667,312.167 229,309.5C 229.359,312.544 230.026,312.878 231,310.5C 232.16,312.797 233.16,312.464 234,309.5C 234.333,310.167 234.667,310.833 235,311.5C 235.667,308.833 236.333,308.833 237,311.5C 237.333,310.167 237.667,308.833 238,307.5C 238.667,312.833 239.333,312.833 240,307.5C 240.869,312.508 241.536,312.175 242,306.5C 242.333,309.167 242.667,311.833 243,314.5C 243.333,310.833 243.667,307.167 244,303.5C 244.333,305.5 244.667,307.5 245,309.5C 245.333,308.167 245.667,306.833 246,305.5C 246.667,310.833 247.333,310.833 248,305.5C 248.333,306.167 248.667,306.833 249,307.5C 249.667,304.833 250.333,304.833 251,307.5C 251.419,306.328 252.085,305.328 253,304.5C 253.667,307.167 254.333,307.167 255,304.5C 255.508,306.904 256.675,307.571 258.5,306.5C 260.833,307.833 263.167,309.167 265.5,310.5C 266.107,310.376 266.44,310.043 266.5,309.5C 270.457,311.473 274.124,313.806 277.5,316.5C 245.265,339.396 209.265,349.229 169.5,346C 112.577,338.974 69.7435,310.807 41,261.5C 15.1761,209.903 15.0094,158.57 40.5,107.5 Z"/></g>
<g><path style="opacity:1" fill="#296eb7" d="M 271.5,249.5 C 262,237.829 252.667,225.996 243.5,214C 249.02,212.88 254.02,210.713 258.5,207.5C 263.924,200.108 263.758,192.775 258,185.5C 243.018,167.53 228.518,149.197 214.5,130.5C 224.747,127.665 229.247,120.999 228,110.5C 220.738,98.9665 213.238,87.6332 205.5,76.5C 205.435,76.0618 205.601,75.7284 206,75.5C 207.5,78.3333 209.667,80.5 212.5,82C 212.167,82.3333 211.833,82.6667 211.5,83C 212.849,83.7724 213.682,84.9391 214,86.5C 214.869,81.4919 215.536,81.8252 216,87.5C 216.667,83.5 217.333,83.5 218,87.5C 218.667,83.5 219.333,83.5 220,87.5C 220.667,84.8333 221.333,84.8333 222,87.5C 222.667,84.8333 223.333,84.8333 224,87.5C 226.558,85.0566 227.392,85.5566 226.5,89C 228.017,90.7785 228.851,90.2785 229,87.5C 229.471,89.2464 230.138,90.913 231,92.5C 231.667,88.5 232.333,88.5 233,92.5C 233.333,91.5 233.667,90.5 234,89.5C 234.26,91.6175 235.26,93.2842 237,94.5C 237.333,93.8333 237.667,93.1667 238,92.5C 238.615,94.1161 239.615,95.4495 241,96.5C 241.333,95.8333 241.667,95.1667 242,94.5C 245.062,96.6792 247.396,100.013 249,104.5C 249.851,101.388 251.017,101.054 252.5,103.5C 251.17,106.849 251.67,107.182 254,104.5C 256.413,107.062 258.08,110.062 259,113.5C 261.091,112.5 262.757,113.167 264,115.5C 263.756,118.367 264.089,121.367 265,124.5C 265.333,121.833 265.667,119.167 266,116.5C 266.406,121.966 267.406,127.299 269,132.5C 269.667,124.5 270.333,124.5 271,132.5C 271.333,130.167 271.667,127.833 272,125.5C 272.085,129.471 273.085,133.138 275,136.5C 275.333,135.5 275.667,134.5 276,133.5C 276.731,135.899 277.898,138.065 279.5,140C 278.941,140.725 278.608,141.558 278.5,142.5C 279.774,145.367 280.607,148.367 281,151.5C 281.333,150.5 281.667,149.5 282,148.5C 283.202,150.553 283.536,152.553 283,154.5C 284.016,155.634 284.683,155.301 285,153.5C 286.564,155.37 286.564,157.37 285,159.5C 284.201,155.576 283.701,155.576 283.5,159.5C 284.326,162.49 285.159,165.49 286,168.5C 286.333,167.833 286.667,167.167 287,166.5C 287.465,167.931 288.299,169.097 289.5,170C 288.5,171 287.5,172 286.5,173C 287.5,174.667 288.5,176.333 289.5,178C 286.936,180.276 287.27,182.276 290.5,184C 289.809,185.067 289.309,186.234 289,187.5C 288.851,184.721 288.017,184.221 286.5,186C 286.833,186.333 287.167,186.667 287.5,187C 286.773,188.399 286.273,189.899 286,191.5C 285.5,192.667 284.667,193.5 283.5,194C 284.833,194.667 285.833,195.667 286.5,197C 287.64,199.573 287.64,202.073 286.5,204.5C 288.973,206.098 288.973,207.598 286.5,209C 287.654,209.914 287.487,210.747 286,211.5C 284.392,210.567 283.559,211.233 283.5,213.5C 284.98,216.232 284.646,218.732 282.5,221C 285.994,222.75 286.161,224.584 283,226.5C 282,225.5 281,224.5 280,223.5C 279.383,224.449 279.549,225.282 280.5,226C 278.875,226.853 278.542,227.853 279.5,229C 278.107,230.171 277.273,231.671 277,233.5C 276.667,232.5 276.333,231.5 276,230.5C 275.697,232.888 274.863,235.055 273.5,237C 275.657,238.085 275.824,239.251 274,240.5C 273.333,239.833 272.667,239.167 272,238.5C 271.443,240.615 270.609,242.615 269.5,244.5C 270.5,245.833 271.5,247.167 272.5,248.5C 272.376,249.107 272.043,249.44 271.5,249.5 Z"/></g>
<g><path style="opacity:1" fill="#1567b2" d="M 300.5,285.5 C 290.844,273.539 281.177,261.539 271.5,249.5C 272.043,249.44 272.376,249.107 272.5,248.5C 271.5,247.167 270.5,245.833 269.5,244.5C 270.609,242.615 271.443,240.615 272,238.5C 272.667,239.167 273.333,239.833 274,240.5C 275.824,239.251 275.657,238.085 273.5,237C 274.863,235.055 275.697,232.888 276,230.5C 276.333,231.5 276.667,232.5 277,233.5C 277.273,231.671 278.107,230.171 279.5,229C 278.542,227.853 278.875,226.853 280.5,226C 279.549,225.282 279.383,224.449 280,223.5C 281,224.5 282,225.5 283,226.5C 286.161,224.584 285.994,222.75 282.5,221C 284.646,218.732 284.98,216.232 283.5,213.5C 283.559,211.233 284.392,210.567 286,211.5C 287.487,210.747 287.654,209.914 286.5,209C 288.973,207.598 288.973,206.098 286.5,204.5C 287.64,202.073 287.64,199.573 286.5,197C 285.833,195.667 284.833,194.667 283.5,194C 284.667,193.5 285.5,192.667 286,191.5C 286.273,189.899 286.773,188.399 287.5,187C 287.167,186.667 286.833,186.333 286.5,186C 288.017,184.221 288.851,184.721 289,187.5C 289.309,186.234 289.809,185.067 290.5,184C 287.27,182.276 286.936,180.276 289.5,178C 288.5,176.333 287.5,174.667 286.5,173C 287.5,172 288.5,171 289.5,170C 288.299,169.097 287.465,167.931 287,166.5C 286.667,167.167 286.333,167.833 286,168.5C 285.159,165.49 284.326,162.49 283.5,159.5C 283.701,155.576 284.201,155.576 285,159.5C 286.564,157.37 286.564,155.37 285,153.5C 284.683,155.301 284.016,155.634 283,154.5C 283.536,152.553 283.202,150.553 282,148.5C 281.667,149.5 281.333,150.5 281,151.5C 280.607,148.367 279.774,145.367 278.5,142.5C 278.608,141.558 278.941,140.725 279.5,140C 277.898,138.065 276.731,135.899 276,133.5C 275.667,134.5 275.333,135.5 275,136.5C 273.085,133.138 272.085,129.471 272,125.5C 271.667,127.833 271.333,130.167 271,132.5C 270.333,124.5 269.667,124.5 269,132.5C 267.406,127.299 266.406,121.966 266,116.5C 265.667,119.167 265.333,121.833 265,124.5C 264.089,121.367 263.756,118.367 264,115.5C 262.757,113.167 261.091,112.5 259,113.5C 258.08,110.062 256.413,107.062 254,104.5C 251.67,107.182 251.17,106.849 252.5,103.5C 251.017,101.054 249.851,101.388 249,104.5C 247.396,100.013 245.062,96.6792 242,94.5C 241.667,95.1667 241.333,95.8333 241,96.5C 239.615,95.4495 238.615,94.1161 238,92.5C 237.667,93.1667 237.333,93.8333 237,94.5C 235.26,93.2842 234.26,91.6175 234,89.5C 233.667,90.5 233.333,91.5 233,92.5C 232.333,88.5 231.667,88.5 231,92.5C 230.138,90.913 229.471,89.2464 229,87.5C 228.851,90.2785 228.017,90.7785 226.5,89C 227.392,85.5566 226.558,85.0566 224,87.5C 223.333,84.8333 222.667,84.8333 222,87.5C 221.333,84.8333 220.667,84.8333 220,87.5C 219.333,83.5 218.667,83.5 218,87.5C 217.333,83.5 216.667,83.5 216,87.5C 215.536,81.8252 214.869,81.4919 214,86.5C 213.682,84.9391 212.849,83.7724 211.5,83C 211.833,82.6667 212.167,82.3333 212.5,82C 209.667,80.5 207.5,78.3333 206,75.5C 205.601,75.7284 205.435,76.0618 205.5,76.5C 194.764,62.6992 184.764,48.3658 175.5,33.5C 179.113,37.027 182.613,41.3603 186,46.5C 186.333,45.8333 186.667,45.1667 187,44.5C 187.748,46.3325 188.748,47.9991 190,49.5C 191.309,47.1088 192.309,47.1088 193,49.5C 193.973,47.6079 194.64,45.6079 195,43.5C 195.667,46.1667 196.333,48.8333 197,51.5C 197.419,47.1482 198.086,46.8149 199,50.5C 199.667,46.5 200.333,46.5 201,50.5C 201.914,46.8149 202.581,47.1482 203,51.5C 203.419,47.1482 204.086,46.8149 205,50.5C 205.822,48.2115 206.489,45.8782 207,43.5C 208.866,54.4391 210.532,54.7724 212,44.5C 212.333,46.5 212.667,48.5 213,50.5C 213.667,45.1667 214.333,45.1667 215,50.5C 215.308,49.6919 215.808,49.0253 216.5,48.5C 217.814,49.3128 218.981,50.3128 220,51.5C 220.667,47.5 221.333,47.5 222,51.5C 222.667,47.5 223.333,47.5 224,51.5C 224.667,46.1667 225.333,46.1667 226,51.5C 227.016,52.6341 227.683,52.3008 228,50.5C 229.872,54.2653 230.705,54.2653 230.5,50.5C 231.458,52.6239 232.625,54.6239 234,56.5C 235.449,55.3859 236.783,54.3859 238,53.5C 238.974,55.8776 239.641,55.5443 240,52.5C 240.29,54.0441 240.956,55.3774 242,56.5C 242.805,54.0989 243.638,54.2656 244.5,57C 243.638,59.7344 242.805,59.9011 242,57.5C 241.667,58.1667 241.333,58.8333 241,59.5C 240.009,58.0611 238.676,57.0611 237,56.5C 237.747,58.9755 239.081,61.3089 241,63.5C 241.333,62.8333 241.667,62.1667 242,61.5C 243.713,62.8782 245.047,64.5448 246,66.5C 246.84,63.5363 247.84,63.203 249,65.5C 249.667,62.8333 250.333,62.8333 251,65.5C 251.667,62.8333 252.333,62.8333 253,65.5C 253.667,62.8333 254.333,62.8333 255,65.5C 255.667,62.8333 256.333,62.8333 257,65.5C 257.333,64.8333 257.667,64.1667 258,63.5C 258.276,65.7665 258.943,68.0999 260,70.5C 260.667,63.8333 261.333,63.8333 262,70.5C 262.333,69.1667 262.667,67.8333 263,66.5C 264.049,70.265 265.382,73.9317 267,77.5C 267.973,75.6079 268.64,73.6079 269,71.5C 269.667,76.8333 270.333,76.8333 271,71.5C 271.714,74.5945 272.714,77.5945 274,80.5C 274.333,79.1667 274.667,77.8333 275,76.5C 275.878,79.7086 277.211,82.7086 279,85.5C 279.667,82.8333 280.333,82.8333 281,85.5C 281.333,84.8333 281.667,84.1667 282,83.5C 282.465,84.9308 283.299,86.0975 284.5,87C 283.366,88.016 283.699,88.6827 285.5,89C 284.692,89.3076 284.025,89.8076 283.5,90.5C 284.333,92.1667 285.167,93.8333 286,95.5C 286.667,92.8333 287.333,92.8333 288,95.5C 288.667,92.8333 289.333,92.8333 290,95.5C 290.333,94.5 290.667,93.5 291,92.5C 292.564,94.6303 292.564,96.6303 291,98.5C 290.174,96.5946 289.007,96.2612 287.5,97.5C 288.861,99.0284 290.028,100.695 291,102.5C 291.333,101.833 291.667,101.167 292,100.5C 292.667,105.833 293.333,105.833 294,100.5C 294.419,104.852 295.086,105.185 296,101.5C 297.46,103.972 298.46,106.639 299,109.5C 299.667,100.167 300.333,100.167 301,109.5C 302.887,111.026 303.887,113.026 304,115.5C 304.333,113.5 304.667,111.5 305,109.5C 305.287,111.891 305.787,114.224 306.5,116.5C 305.024,119.415 304.19,122.415 304,125.5C 305.101,127.394 306.434,128.061 308,127.5C 308.667,131.5 309.333,131.5 310,127.5C 310.333,128.5 310.667,129.5 311,130.5C 311.333,128.5 311.667,126.5 312,124.5C 312.045,127.334 312.879,129.834 314.5,132C 313.638,134.734 312.805,134.901 312,132.5C 310.418,134.624 310.251,136.79 311.5,139C 310.833,139.667 310.167,140.333 309.5,141C 312.869,143.365 315.036,146.532 316,150.5C 317.471,148.098 318.971,148.264 320.5,151C 319.773,152.399 319.273,153.899 319,155.5C 318.667,154.167 318.333,152.833 318,151.5C 316.136,157.51 316.803,163.177 320,168.5C 320.333,167.833 320.667,167.167 321,166.5C 321.465,167.931 322.299,169.097 323.5,170C 323.167,170.333 322.833,170.667 322.5,171C 324.415,173.185 324.582,175.685 323,178.5C 322.333,173.167 321.667,173.167 321,178.5C 320.667,177.167 320.333,175.833 320,174.5C 319.727,176.101 319.227,177.601 318.5,179C 320.333,180.833 322.167,182.667 324,184.5C 324.333,183.5 324.667,182.5 325,181.5C 326.267,183.424 326.267,185.09 325,186.5C 324.667,186.167 324.333,185.833 324,185.5C 324.984,187.598 324.651,189.598 323,191.5C 322,189.5 321,187.5 320,185.5C 319.683,187.301 319.016,187.634 318,186.5C 317.5,187 317,187.5 316.5,188C 317.833,189 317.833,190 316.5,191C 317.253,192.487 318.086,192.654 319,191.5C 319.667,192.833 320.333,194.167 321,195.5C 321.805,193.099 322.638,193.266 323.5,196C 322.638,198.734 321.805,198.901 321,196.5C 320.374,198.991 319.541,198.991 318.5,196.5C 315.005,198.508 314.505,201.175 317,204.5C 317.149,201.721 317.983,201.221 319.5,203C 318.743,204.512 317.743,205.846 316.5,207C 318.442,211.126 320.442,214.793 322.5,218C 321.874,218.75 321.374,219.584 321,220.5C 318.876,215.604 317.543,215.604 317,220.5C 316.489,218.122 315.822,215.788 315,213.5C 314.578,215.355 314.078,217.189 313.5,219C 317.553,225.062 318.053,230.895 315,236.5C 314.667,236.167 314.333,235.833 314,235.5C 313.667,236.5 313.333,237.5 313,238.5C 312.224,234.011 310.057,233.344 306.5,236.5C 305.833,237.833 305.167,239.167 304.5,240.5C 303.879,242.998 304.545,245.332 306.5,247.5C 305.787,249.776 305.287,252.109 305,254.5C 304.667,252.5 304.333,250.5 304,248.5C 303.548,251.877 302.882,255.211 302,258.5C 301.333,253.167 300.667,253.167 300,258.5C 299.333,253.167 298.667,253.167 298,258.5C 296.984,259.634 296.317,259.301 296,257.5C 295.56,259.076 294.727,260.41 293.5,261.5C 294.648,263.149 295.981,264.649 297.5,266C 294.79,267.46 294.124,269.46 295.5,272C 294.643,272.689 293.977,273.522 293.5,274.5C 296.281,277.934 298.614,281.601 300.5,285.5 Z"/></g>
<g><path style="opacity:1" fill="#0961ac" d="M 330.5,254.5 C 323.739,268.25 315.405,280.916 305.5,292.5C 303.478,290.469 301.811,288.135 300.5,285.5C 298.614,281.601 296.281,277.934 293.5,274.5C 293.977,273.522 294.643,272.689 295.5,272C 294.124,269.46 294.79,267.46 297.5,266C 295.981,264.649 294.648,263.149 293.5,261.5C 294.727,260.41 295.56,259.076 296,257.5C 296.317,259.301 296.984,259.634 298,258.5C 298.667,253.167 299.333,253.167 300,258.5C 300.667,253.167 301.333,253.167 302,258.5C 302.882,255.211 303.548,251.877 304,248.5C 304.333,250.5 304.667,252.5 305,254.5C 305.287,252.109 305.787,249.776 306.5,247.5C 304.545,245.332 303.879,242.998 304.5,240.5C 305.167,239.167 305.833,237.833 306.5,236.5C 310.057,233.344 312.224,234.011 313,238.5C 313.333,237.5 313.667,236.5 314,235.5C 314.333,235.833 314.667,236.167 315,236.5C 318.053,230.895 317.553,225.062 313.5,219C 314.078,217.189 314.578,215.355 315,213.5C 315.822,215.788 316.489,218.122 317,220.5C 317.543,215.604 318.876,215.604 321,220.5C 321.374,219.584 321.874,218.75 322.5,218C 320.442,214.793 318.442,211.126 316.5,207C 317.743,205.846 318.743,204.512 319.5,203C 317.983,201.221 317.149,201.721 317,204.5C 314.505,201.175 315.005,198.508 318.5,196.5C 319.541,198.991 320.374,198.991 321,196.5C 321.805,198.901 322.638,198.734 323.5,196C 322.638,193.266 321.805,193.099 321,195.5C 320.333,194.167 319.667,192.833 319,191.5C 318.086,192.654 317.253,192.487 316.5,191C 317.833,190 317.833,189 316.5,188C 317,187.5 317.5,187 318,186.5C 319.016,187.634 319.683,187.301 320,185.5C 321,187.5 322,189.5 323,191.5C 324.651,189.598 324.984,187.598 324,185.5C 324.333,185.833 324.667,186.167 325,186.5C 326.267,185.09 326.267,183.424 325,181.5C 324.667,182.5 324.333,183.5 324,184.5C 322.167,182.667 320.333,180.833 318.5,179C 319.227,177.601 319.727,176.101 320,174.5C 320.333,175.833 320.667,177.167 321,178.5C 321.667,173.167 322.333,173.167 323,178.5C 324.582,175.685 324.415,173.185 322.5,171C 322.833,170.667 323.167,170.333 323.5,170C 322.299,169.097 321.465,167.931 321,166.5C 320.667,167.167 320.333,167.833 320,168.5C 316.803,163.177 316.136,157.51 318,151.5C 318.333,152.833 318.667,154.167 319,155.5C 319.273,153.899 319.773,152.399 320.5,151C 318.971,148.264 317.471,148.098 316,150.5C 315.036,146.532 312.869,143.365 309.5,141C 310.167,140.333 310.833,139.667 311.5,139C 310.251,136.79 310.418,134.624 312,132.5C 312.805,134.901 313.638,134.734 314.5,132C 312.879,129.834 312.045,127.334 312,124.5C 311.667,126.5 311.333,128.5 311,130.5C 310.667,129.5 310.333,128.5 310,127.5C 309.333,131.5 308.667,131.5 308,127.5C 306.434,128.061 305.101,127.394 304,125.5C 304.19,122.415 305.024,119.415 306.5,116.5C 305.787,114.224 305.287,111.891 305,109.5C 304.667,111.5 304.333,113.5 304,115.5C 303.887,113.026 302.887,111.026 301,109.5C 300.333,100.167 299.667,100.167 299,109.5C 298.46,106.639 297.46,103.972 296,101.5C 295.086,105.185 294.419,104.852 294,100.5C 293.333,105.833 292.667,105.833 292,100.5C 291.667,101.167 291.333,101.833 291,102.5C 290.028,100.695 288.861,99.0284 287.5,97.5C 289.007,96.2612 290.174,96.5946 291,98.5C 292.564,96.6303 292.564,94.6303 291,92.5C 290.667,93.5 290.333,94.5 290,95.5C 289.333,92.8333 288.667,92.8333 288,95.5C 287.333,92.8333 286.667,92.8333 286,95.5C 285.167,93.8333 284.333,92.1667 283.5,90.5C 284.025,89.8076 284.692,89.3076 285.5,89C 283.699,88.6827 283.366,88.016 284.5,87C 283.299,86.0975 282.465,84.9308 282,83.5C 281.667,84.1667 281.333,84.8333 281,85.5C 280.333,82.8333 279.667,82.8333 279,85.5C 277.211,82.7086 275.878,79.7086 275,76.5C 274.667,77.8333 274.333,79.1667 274,80.5C 272.714,77.5945 271.714,74.5945 271,71.5C 270.333,76.8333 269.667,76.8333 269,71.5C 268.64,73.6079 267.973,75.6079 267,77.5C 265.382,73.9317 264.049,70.265 263,66.5C 262.667,67.8333 262.333,69.1667 262,70.5C 261.333,63.8333 260.667,63.8333 260,70.5C 258.943,68.0999 258.276,65.7665 258,63.5C 257.667,64.1667 257.333,64.8333 257,65.5C 256.333,62.8333 255.667,62.8333 255,65.5C 254.333,62.8333 253.667,62.8333 253,65.5C 252.333,62.8333 251.667,62.8333 251,65.5C 250.333,62.8333 249.667,62.8333 249,65.5C 247.84,63.203 246.84,63.5363 246,66.5C 245.047,64.5448 243.713,62.8782 242,61.5C 241.667,62.1667 241.333,62.8333 241,63.5C 239.081,61.3089 237.747,58.9755 237,56.5C 238.676,57.0611 240.009,58.0611 241,59.5C 241.333,58.8333 241.667,58.1667 242,57.5C 242.805,59.9011 243.638,59.7344 244.5,57C 243.638,54.2656 242.805,54.0989 242,56.5C 240.956,55.3774 240.29,54.0441 240,52.5C 239.641,55.5443 238.974,55.8776 238,53.5C 236.783,54.3859 235.449,55.3859 234,56.5C 232.625,54.6239 231.458,52.6239 230.5,50.5C 230.705,54.2653 229.872,54.2653 228,50.5C 227.683,52.3008 227.016,52.6341 226,51.5C 225.333,46.1667 224.667,46.1667 224,51.5C 223.333,47.5 222.667,47.5 222,51.5C 221.333,47.5 220.667,47.5 220,51.5C 218.981,50.3128 217.814,49.3128 216.5,48.5C 215.808,49.0253 215.308,49.6919 215,50.5C 214.333,45.1667 213.667,45.1667 213,50.5C 212.667,48.5 212.333,46.5 212,44.5C 210.532,54.7724 208.866,54.4391 207,43.5C 206.489,45.8782 205.822,48.2115 205,50.5C 204.086,46.8149 203.419,47.1482 203,51.5C 202.581,47.1482 201.914,46.8149 201,50.5C 200.333,46.5 199.667,46.5 199,50.5C 198.086,46.8149 197.419,47.1482 197,51.5C 196.333,48.8333 195.667,46.1667 195,43.5C 194.64,45.6079 193.973,47.6079 193,49.5C 192.309,47.1088 191.309,47.1088 190,49.5C 188.748,47.9991 187.748,46.3325 187,44.5C 186.667,45.1667 186.333,45.8333 186,46.5C 182.613,41.3603 179.113,37.027 175.5,33.5C 172.601,30.0484 169.934,26.3817 167.5,22.5C 229.295,17.593 279.795,41.2596 319,93.5C 351.164,145.146 354.998,198.812 330.5,254.5 Z"/></g>
<g><path style="opacity:1" fill="#040506" d="M 167.5,22.5 C 169.934,26.3817 172.601,30.0484 175.5,33.5C 184.764,48.3658 194.764,62.6992 205.5,76.5C 213.238,87.6332 220.738,98.9665 228,110.5C 229.247,120.999 224.747,127.665 214.5,130.5C 228.518,149.197 243.018,167.53 258,185.5C 263.758,192.775 263.924,200.108 258.5,207.5C 254.02,210.713 249.02,212.88 243.5,214C 252.667,225.996 262,237.829 271.5,249.5C 281.177,261.539 290.844,273.539 300.5,285.5C 301.811,288.135 303.478,290.469 305.5,292.5C 309.197,297.191 312.864,301.858 316.5,306.5C 318.634,322.867 311.634,329.367 295.5,326C 289.878,322.023 283.878,318.857 277.5,316.5C 274.124,313.806 270.457,311.473 266.5,309.5C 251.663,300.581 236.663,291.914 221.5,283.5C 184.527,262.012 147.527,240.512 110.5,219C 102.398,206.431 105.398,197.431 119.5,192C 106.009,182.669 92.6761,173.169 79.5,163.5C 72.312,158.309 65.1453,152.976 58,147.5C 52.2202,137.847 54.0535,130.013 63.5,124C 60.2084,120.862 56.5418,118.362 52.5,116.5C 48.8962,113.025 44.8962,110.025 40.5,107.5C 28.4901,98.399 16.3235,89.399 4,80.5C -1.03589,72.6726 -0.202552,65.506 6.5,59C 51.3838,39.3913 96.3838,20.058 141.5,1C 145.814,0.545424 149.814,1.54542 153.5,4C 158.414,10.0673 163.081,16.2339 167.5,22.5 Z"/></g>
<g><path style="opacity:1" fill="#fefefe" d="M 142.5,13.5 C 143.552,13.3505 144.552,13.5172 145.5,14C 169.063,47.3866 192.396,80.8866 215.5,114.5C 215.182,115.647 214.516,116.481 213.5,117C 207.178,118.942 200.844,120.775 194.5,122.5C 194.34,124.199 194.506,125.866 195,127.5C 213.562,150.391 231.729,173.557 249.5,197C 248.907,198.882 247.573,199.882 245.5,200C 238.464,201.509 231.464,203.176 224.5,205C 222.993,205.837 222.493,207.004 223,208.5C 250.563,243.058 277.729,277.891 304.5,313C 304.37,314.059 303.87,314.892 303,315.5C 241.704,280.366 180.537,245.033 119.5,209.5C 118.269,208.349 118.269,207.183 119.5,206C 126.667,203.167 133.833,200.333 141,197.5C 142.769,196.629 143.436,195.296 143,193.5C 118,175.167 93,156.833 68,138.5C 67.3828,137.551 67.5494,136.718 68.5,136C 73.7505,133.472 79.0839,131.139 84.5,129C 86.5152,127.445 86.8485,125.611 85.5,123.5C 61.5787,106.623 37.7453,89.6227 14,72.5C 13.3162,71.2161 13.4829,70.0495 14.5,69C 57.373,50.7241 100.04,32.2241 142.5,13.5 Z"/></g>
<g><path style="opacity:1" fill="#286db7" d="M 79.5,163.5 C 92.6761,173.169 106.009,182.669 119.5,192C 105.398,197.431 102.398,206.431 110.5,219C 147.527,240.512 184.527,262.012 221.5,283.5C 221.631,284.239 221.464,284.906 221,285.5C 219.296,284.547 217.63,283.547 216,282.5C 215.055,282.905 214.388,283.572 214,284.5C 213.667,283.833 213.333,283.167 213,282.5C 212.333,286.5 211.667,286.5 211,282.5C 210.333,286.5 209.667,286.5 209,282.5C 208.333,287.833 207.667,287.833 207,282.5C 206.333,284.5 205.667,286.5 205,288.5C 204.667,287.5 204.333,286.5 204,285.5C 203.333,288.167 202.667,288.167 202,285.5C 201.333,289.5 200.667,289.5 200,285.5C 199.333,288.167 198.667,288.167 198,285.5C 197.333,288.167 196.667,288.167 196,285.5C 195.333,290.833 194.667,290.833 194,285.5C 193.333,288.167 192.667,288.167 192,285.5C 191.333,286.833 190.667,288.167 190,289.5C 188.863,288.636 187.53,287.636 186,286.5C 185.667,285.5 185.333,284.5 185,283.5C 184.333,287.5 183.667,287.5 183,283.5C 182.641,286.544 181.974,286.878 181,284.5C 180.333,287.167 179.667,287.167 179,284.5C 178.333,287.167 177.667,287.167 177,284.5C 176.333,287.167 175.667,287.167 175,284.5C 174.333,287.167 173.667,287.167 173,284.5C 172.333,285.833 171.667,287.167 171,288.5C 170.667,287.833 170.333,287.167 170,286.5C 166.266,291.976 164.1,291.309 163.5,284.5C 164.552,284.649 165.552,284.483 166.5,284C 165.773,282.601 165.273,281.101 165,279.5C 164.667,280.833 164.333,282.167 164,283.5C 163.333,279.5 162.667,279.5 162,283.5C 161.333,280.833 160.667,280.833 160,283.5C 159.333,280.833 158.667,280.833 158,283.5C 157.333,280.833 156.667,280.833 156,283.5C 155.333,280.833 154.667,280.833 154,283.5C 153.16,280.536 152.16,280.203 151,282.5C 150.333,279.833 149.667,279.833 149,282.5C 148.026,280.122 147.359,280.456 147,283.5C 145.714,280.595 144.714,277.595 144,274.5C 143.667,275.833 143.333,277.167 143,278.5C 142.333,273.167 141.667,273.167 141,278.5C 140.333,270.5 139.667,270.5 139,278.5C 137.667,275.167 136.333,271.833 135,268.5C 134.667,269.833 134.333,271.167 134,272.5C 133.333,268.5 132.667,268.5 132,272.5C 130.985,269.79 129.485,267.457 127.5,265.5C 126.749,266.376 126.249,267.376 126,268.5C 125.333,260.5 124.667,260.5 124,268.5C 123.667,267.167 123.333,265.833 123,264.5C 122.333,269.833 121.667,269.833 121,264.5C 119.667,268.5 118.333,268.5 117,264.5C 116.667,264.833 116.333,265.167 116,265.5C 114.333,263.167 112.667,260.833 111,258.5C 110.667,258.833 110.333,259.167 110,259.5C 108.513,258.747 108.346,257.914 109.5,257C 104.988,254.849 101.154,251.349 98,246.5C 96.78,241.854 94.28,238.021 90.5,235C 93.4246,228.448 92.5912,227.948 88,233.5C 87.1667,232.667 86.3333,231.833 85.5,231C 86.3266,228.939 86.6599,226.605 86.5,224C 85.2357,221.186 84.2357,218.353 83.5,215.5C 83.7093,214.914 84.0426,214.414 84.5,214C 82.5,211.667 80.5,209.333 78.5,207C 77.9394,205.434 78.6061,204.101 80.5,203C 79.8333,202.333 79.1667,201.667 78.5,201C 80.9734,199.598 80.9734,198.098 78.5,196.5C 79.1082,192.267 79.4416,188.1 79.5,184C 76.526,182.494 76.1927,180.828 78.5,179C 76.006,176.607 76.6727,175.44 80.5,175.5C 80.67,176.822 80.3366,177.989 79.5,179C 80.1905,180.067 80.6905,181.234 81,182.5C 81.9422,176.256 81.1089,170.256 78.5,164.5C 78.6236,163.893 78.9569,163.56 79.5,163.5 Z"/></g>
<g><path style="opacity:1" fill="#f1f1f1" d="M 330.5,254.5 C 335.167,254.5 339.833,254.5 344.5,254.5C 344.5,259.5 344.5,264.5 344.5,269.5C 339.5,269.5 334.5,269.5 329.5,269.5C 329.5,274.5 329.5,279.5 329.5,284.5C 334.5,284.5 339.5,284.5 344.5,284.5C 344.5,289.5 344.5,294.5 344.5,299.5C 339.5,299.5 334.5,299.5 329.5,299.5C 329.5,304.5 329.5,309.5 329.5,314.5C 325.833,314.5 322.167,314.5 318.5,314.5C 318.789,311.351 318.289,308.351 317,305.5C 316.601,305.728 316.435,306.062 316.5,306.5C 312.864,301.858 309.197,297.191 305.5,292.5C 315.405,280.916 323.739,268.25 330.5,254.5 Z"/></g>
</svg>
