<?xml version="1.0" encoding="UTF-8"?>
<!DOCTYPE svg PUBLIC "-//W3C//DTD SVG 1.1//EN" "http://www.w3.org/Graphics/SVG/1.1/DTD/svg11.dtd">
<svg xmlns="http://www.w3.org/2000/svg" version="1.1" width="860px" height="336px" style="shape-rendering:geometricPrecision; text-rendering:geometricPrecision; image-rendering:optimizeQuality; fill-rule:evenodd; clip-rule:evenodd" xmlns:xlink="http://www.w3.org/1999/xlink">
<g><path style="opacity:0.998" fill="#13bf94" d="M 149.5,-0.5 C 161.5,-0.5 173.5,-0.5 185.5,-0.5C 227.424,4.87849 262.924,22.8785 292,53.5C 292.52,55.2889 292.187,56.9556 291,58.5C 283.138,70.2212 276.304,82.5545 270.5,95.5C 272.611,96.8485 274.445,96.5152 276,94.5C 305.16,40.0032 350.327,8.33649 411.5,-0.5C 423.5,-0.5 435.5,-0.5 447.5,-0.5C 508.673,8.33649 553.84,40.0032 583,94.5C 584.555,96.5152 586.389,96.8485 588.5,95.5C 582.696,82.5545 575.862,70.2212 568,58.5C 566.813,56.9556 566.48,55.2889 567,53.5C 589.863,28.8142 617.696,12.4809 650.5,4.5C 652.2,5.01603 653.533,6.01603 654.5,7.5C 652.548,8.54447 650.548,9.54447 648.5,10.5C 647.167,12.1667 647.167,13.8333 648.5,15.5C 649.429,14.3112 649.762,12.9778 649.5,11.5C 651.5,11.5 653.5,11.5 655.5,11.5C 655.5,14.1667 655.5,16.8333 655.5,19.5C 656.833,19.5 658.167,19.5 659.5,19.5C 659.238,20.9778 659.571,22.3112 660.5,23.5C 661.659,16.9788 659.992,11.3121 655.5,6.5C 658.975,5.92042 662.309,5.08709 665.5,4C 662.305,3.81948 659.305,3.31948 656.5,2.5C 662.315,1.60064 667.982,0.600635 673.5,-0.5C 685.5,-0.5 697.5,-0.5 709.5,-0.5C 709.842,0.338246 710.508,0.67158 711.5,0.5C 716.223,3.84799 721.557,5.51466 727.5,5.5C 727.5,6.5 727.5,7.5 727.5,8.5C 729.981,8.22602 731.647,6.89269 732.5,4.5C 785.044,18.5404 822.877,50.207 846,99.5C 852.554,115.394 857.054,131.727 859.5,148.5C 859.5,161.167 859.5,173.833 859.5,186.5C 850.143,248.351 817.477,293.185 761.5,321C 744.744,328.352 727.41,333.186 709.5,335.5C 697.5,335.5 685.5,335.5 673.5,335.5C 610.745,326.41 565.412,293.41 537.5,236.5C 535.926,235.369 534.259,235.202 532.5,236C 534.328,240.817 536.162,245.65 538,250.5C 543.675,260.854 549.008,271.188 554,281.5C 524.924,312.122 489.424,330.122 447.5,335.5C 435.5,335.5 423.5,335.5 411.5,335.5C 369.574,330.12 334.074,312.12 305,281.5C 309.992,271.188 315.325,260.854 321,250.5C 322.838,245.65 324.672,240.817 326.5,236C 324.741,235.202 323.074,235.369 321.5,236.5C 293.588,293.41 248.255,326.41 185.5,335.5C 173.5,335.5 161.5,335.5 149.5,335.5C 79.1507,324.991 31.6507,286.324 7,219.5C 3.77541,208.526 1.27541,197.526 -0.5,186.5C -0.5,173.833 -0.5,161.167 -0.5,148.5C 9.25242,85.9163 42.5858,40.7497 99.5,13C 115.698,6.28613 132.365,1.78613 149.5,-0.5 Z M 258.5,147.5 C 261.499,160.129 261.832,172.796 259.5,185.5C 246.713,232.274 216.046,257.607 167.5,261.5C 121.68,258.196 91.5132,234.863 77,191.5C 68.1117,146.128 82.945,110.961 121.5,86C 162.526,66.0303 200.026,71.197 234,101.5C 246.618,114.4 254.785,129.733 258.5,147.5 Z M 522.5,164.5 C 523.833,166.5 523.833,168.5 522.5,170.5C 519.06,215.105 496.06,244.272 453.5,258C 404.007,267.168 367.507,249.668 344,205.5C 329.267,167.504 335.267,133.171 362,102.5C 392.842,73.7318 428.009,66.8985 467.5,82C 501.677,98.8342 520.011,126.334 522.5,164.5 Z M 688.5,73.5 C 729.318,74.6403 758.818,93.307 777,129.5C 793.732,175.289 783.232,213.455 745.5,244C 709.505,267.332 673.505,267.332 637.5,244C 599.963,213.358 589.463,175.191 606,129.5C 623.101,95.5315 650.601,76.8649 688.5,73.5 Z"/></g>
<g><path style="opacity:0.952" fill="#1abc97" d="M 711.5,0.5 C 718.804,0.881086 725.804,2.21442 732.5,4.5C 731.647,6.89269 729.981,8.22602 727.5,8.5C 727.5,7.5 727.5,6.5 727.5,5.5C 721.557,5.51466 716.223,3.84799 711.5,0.5 Z"/></g>
<g><path style="opacity:1" fill="#14be97" d="M 656.5,2.5 C 659.305,3.31948 662.305,3.81948 665.5,4C 662.309,5.08709 658.975,5.92042 655.5,6.5C 659.992,11.3121 661.659,16.9788 660.5,23.5C 659.571,22.3112 659.238,20.9778 659.5,19.5C 658.167,19.5 656.833,19.5 655.5,19.5C 655.5,16.8333 655.5,14.1667 655.5,11.5C 653.5,11.5 651.5,11.5 649.5,11.5C 649.762,12.9778 649.429,14.3112 648.5,15.5C 647.167,13.8333 647.167,12.1667 648.5,10.5C 650.548,9.54447 652.548,8.54447 654.5,7.5C 653.533,6.01603 652.2,5.01603 650.5,4.5C 652.302,3.5418 654.302,2.87513 656.5,2.5 Z"/></g>
<g><path style="opacity:1" fill="#14be96" d="M 259.5,185.5 C 261.832,172.796 261.499,160.129 258.5,147.5C 260.026,146.895 261.026,145.729 261.5,144C 262.793,143.51 264.127,143.343 265.5,143.5C 265.5,151.5 265.5,159.5 265.5,167.5C 264.5,167.5 263.5,167.5 262.5,167.5C 261.629,170.062 261.629,172.728 262.5,175.5C 263.5,175.5 264.5,175.5 265.5,175.5C 265.828,180.875 265.495,186.208 264.5,191.5C 263.183,189.841 261.517,188.674 259.5,188C 263.326,187.313 263.326,186.48 259.5,185.5 Z"/></g>
<g><path style="opacity:1" fill="#17be99" d="M 522.5,170.5 C 523.833,168.5 523.833,166.5 522.5,164.5C 523.479,163.235 524.479,161.901 525.5,160.5C 524.617,159.452 523.95,158.285 523.5,157C 524.161,154.536 524.661,152.036 525,149.5C 525.667,150.833 526.667,151.833 528,152.5C 528.743,162.892 528.243,173.226 526.5,183.5C 525.676,180.215 525.176,176.882 525,173.5C 524.148,172.429 523.315,171.429 522.5,170.5 Z"/></g>
</svg>
